<!--?xml version="1.0"?-->
<svg version="1.1" xmlns="http://www.w3.org/2000/svg" xmlns:xlink="http://www.w3.org/1999/xlink" width="700" height="700">
    <desc ivinci="yes" version="4.6" gridstep="20" showgrid="no" snaptogrid="no" codeplatform="0"></desc>
    <g id="Layer1" name="Layer 1" opacity="1">
        <g id="Shape1">
            <desc shapeid="1" type="0" basicinfo-basictype="0" basicinfo-roundedrectradius="12" basicinfo-polygonsides="6" basicinfo-starpoints="5" bounding="rect(-73.8877,-90.2024,147.775,180.405)" text="" font-familyname="" font-pixelsize="20" font-bold="0" font-underline="0" font-alignment="1" strokestyle="0" markerstart="0" markerend="0" shadowenabled="0" shadowoffsetx="0" shadowoffsety="2" shadowblur="4" shadowopacity="160" blurenabled="0" blurradius="4" transform="matrix(2.60534,0,0,2.60534,327.22,304.884)" pers-center="0,0" pers-size="0,0" pers-start="0,0" pers-end="0,0" locked="0" mesh="" flag=""></desc>
            <path id="shapePath1" d="M249.67,538.84 C209.049,529.673 161.821,462.782 141.771,386.018 C134.28,357.338 132.441,311.336 137.778,286.12 C146.901,243.015 172.591,207.584 206.299,191.618 C222.429,183.978 226.32,183.209 248.805,183.209 C270.698,183.209 276.742,184.329 301.159,192.913 C331.439,203.558 329.51,203.61 361.907,191.281 C400.138,176.732 434.443,177.099 466.508,192.403 C482.331,199.954 506.838,222.516 506.632,229.342 C506.576,231.194 501.275,236.577 494.851,241.303 C480.151,252.118 466.699,272.451 460.982,292.497 C449.077,334.239 469.23,381.72 508.687,404.893 C514.777,408.469 519.743,412.812 519.723,414.542 C519.654,420.34 493.857,471.475 482.175,488.971 C449.661,537.665 423.409,547.845 374.929,530.561 C344.55,519.73 328.444,519.682 297.004,530.325 C269.017,539.799 260.615,541.31 249.67,538.84 L249.67,538.84 M292.339,524.508 C329.051,512.48 342.31,512.509 380.013,524.697 C401.427,531.62 411.17,533.573 418.038,532.319 C438.436,528.594 460.623,509.711 479.77,479.779 C489.513,464.548 513.18,416.563 511.545,415.354 C511.048,414.987 506.538,412.207 501.523,409.176 C487.713,400.832 468.774,380.181 461.446,365.477 C447.555,337.604 447.555,299.418 461.447,270.829 C465.526,262.435 475.077,249.861 483.771,241.44 L498.965,226.722 L485.993,215.059 C452.573,185.012 413.223,179.773 362.803,198.658 C349.144,203.774 334.027,207.959 329.21,207.959 C324.393,207.958 308.728,203.753 294.398,198.614 C251.756,183.321 223.049,186.233 192.143,208.985 C174.226,222.175 159.639,242.474 150.53,266.894 C142.262,289.06 139.414,336.262 144.589,365.379 C148.328,386.418 162.687,429.341 172.501,448.816 C195.751,494.949 234.753,533.338 258.61,533.57 C261.853,533.601 277.031,529.523 292.339,524.508 M323.708,180.443 C317.324,173.873 325.443,138.327 337.76,118.926 C354.397,92.7189 389.098,69.8828 412.29,69.8785 L423.363,69.8765 L423.363,82.4303 C423.363,129.838 383.333,177.339 340.155,181.169 C332.184,181.876 324.783,181.549 323.708,180.443 M362.462,167.314 C389.55,154.503 412.848,120.241 415.079,89.9372 L416.192,74.8259 L408.704,76.5467 C368.684,85.7444 333.657,123.647 330.228,161.466 L328.812,177.074 L338.961,175.351 C344.543,174.404 355.118,170.788 362.462,167.314 Z" style="stroke:#000fff;stroke-opacity:1;stroke-width:3;stroke-linejoin:miter;stroke-miterlimit:2;stroke-linecap:butt;fill:none;" class="gEEiHZlJ_0"></path>
        </g>
        <g id="Shape2">
            <desc shapeid="2" type="0" basicinfo-basictype="0" basicinfo-roundedrectradius="12" basicinfo-polygonsides="6" basicinfo-starpoints="5" bounding="rect(-4.83341,-4.76974,9.66682,9.53948)" text="" font-familyname="" font-pixelsize="20" font-bold="0" font-underline="0" font-alignment="1" strokestyle="0" markerstart="0" markerend="0" shadowenabled="0" shadowoffsetx="0" shadowoffsety="2" shadowblur="4" shadowopacity="160" blurenabled="0" blurradius="4" transform="matrix(2.60534,0,0,2.90286,326.067,351.488)" pers-center="0,0" pers-size="0,0" pers-start="0,0" pers-end="0,0" locked="0" mesh="" flag=""></desc>
            <path id="shapePath2" d="M320.994,365.272 C318.337,364.732 315.247,360.791 313.936,356.268 C313.446,354.579 313.325,351.868 313.675,350.383 C314.271,347.843 315.952,345.755 318.157,344.815 C319.212,344.365 319.467,344.319 320.937,344.319 C322.37,344.319 322.765,344.385 324.362,344.891 C326.343,345.518 326.217,345.521 328.336,344.795 C330.837,343.938 333.081,343.96 335.179,344.861 C336.214,345.306 337.817,346.635 337.803,347.038 C337.801,347.147 337.453,347.464 337.033,347.742 C336.071,348.379 335.191,349.577 334.817,350.759 C334.038,353.218 335.357,356.015 337.938,357.381 C338.336,357.591 338.661,357.847 338.66,357.949 C338.654,358.291 336.968,361.304 336.203,362.334 C334.077,365.203 332.359,365.803 329.188,364.785 C327.201,364.147 326.147,364.144 324.09,364.77 C322.26,365.328 321.71,365.417 320.994,365.272 L320.994,365.272 M323.785,364.428 C326.187,363.719 327.054,363.721 329.52,364.44 C330.921,364.847 331.559,364.962 332.008,364.889 C333.342,364.669 334.794,363.557 336.046,361.793 C336.684,360.896 338.232,358.069 338.125,357.997 C338.092,357.977 337.797,357.812 337.469,357.633 C336.566,357.142 335.327,355.925 334.847,355.059 C333.939,353.416 333.939,351.167 334.848,349.482 C335.114,348.988 335.739,348.247 336.308,347.751 L337.302,346.884 L336.453,346.196 C334.267,344.426 331.693,344.117 328.395,345.23 C327.501,345.531 326.512,345.778 326.197,345.778 C325.882,345.778 324.857,345.53 323.92,345.227 C321.131,344.326 319.253,344.498 317.231,345.839 C316.059,346.616 315.105,347.812 314.509,349.25 C313.968,350.556 313.782,353.337 314.12,355.053 C314.365,356.292 315.304,358.821 315.946,359.969 C317.467,362.687 320.018,364.949 321.579,364.962 C321.791,364.964 322.784,364.724 323.785,364.428 L323.785,364.428 M325.837,344.156 C325.42,343.769 325.951,341.675 326.757,340.532 C327.845,338.988 330.115,337.642 331.632,337.642 L332.356,337.642 L332.356,338.382 C332.356,341.175 329.738,343.974 326.913,344.199 C326.392,344.241 325.908,344.222 325.837,344.156 L325.837,344.156 M328.372,343.383 C330.144,342.628 331.668,340.609 331.814,338.824 L331.887,337.934 L331.397,338.035 C328.779,338.577 326.488,340.81 326.264,343.038 L326.171,343.958 L326.835,343.856 C327.2,343.8 327.892,343.587 328.372,343.383 L328.372,343.383 Z" style="stroke:#ff000c;stroke-opacity:1;stroke-width:0.5;stroke-linejoin:miter;stroke-miterlimit:2;stroke-linecap:butt;fill:none;" class="gEEiHZlJ_1"></path>
        </g>
        <g id="Shape3">
            <desc shapeid="3" type="0" basicinfo-basictype="0" basicinfo-roundedrectradius="12" basicinfo-polygonsides="6" basicinfo-starpoints="5" bounding="rect(-11.4732,-12.2949,22.9465,24.5899)" text="" font-familyname="" font-pixelsize="20" font-bold="0" font-underline="0" font-alignment="1" strokestyle="0" markerstart="0" markerend="0" shadowenabled="0" shadowoffsetx="0" shadowoffsety="2" shadowblur="4" shadowopacity="160" blurenabled="0" blurradius="4" transform="matrix(2.60534,0,0,2.82336,327.22,343.721)" pers-center="0,0" pers-size="0,0" pers-start="0,0" pers-end="0,0" locked="0" mesh="" flag=""></desc>
            <path id="shapePath3" d="M315.178,378.279 C308.871,376.925 301.537,367.045 298.424,355.706 C297.261,351.469 296.975,344.674 297.804,340.95 C299.22,334.583 303.209,329.349 308.444,326.991 C310.948,325.862 311.552,325.749 315.044,325.749 C318.444,325.749 319.382,325.914 323.173,327.182 C327.875,328.754 327.576,328.762 332.606,326.941 C338.543,324.792 343.87,324.846 348.849,327.107 C351.306,328.222 355.111,331.555 355.079,332.563 C355.071,332.837 354.247,333.632 353.25,334.33 C350.967,335.927 348.878,338.931 347.991,341.892 C346.142,348.057 349.271,355.071 355.398,358.494 C356.344,359.022 357.115,359.663 357.112,359.919 C357.101,360.775 353.095,368.329 351.281,370.913 C346.233,378.105 342.156,379.609 334.628,377.056 C329.911,375.456 327.41,375.449 322.528,377.021 C318.182,378.421 316.878,378.644 315.178,378.279 L315.178,378.279 M321.804,376.162 C327.504,374.386 329.563,374.39 335.418,376.19 C338.743,377.213 340.256,377.501 341.322,377.316 C344.49,376.766 347.935,373.977 350.908,369.556 C352.421,367.306 356.096,360.218 355.842,360.039 C355.765,359.985 355.065,359.574 354.286,359.127 C352.141,357.894 349.201,354.844 348.063,352.672 C345.906,348.555 345.906,342.914 348.063,338.691 C348.696,337.452 350.179,335.594 351.529,334.35 L353.889,332.176 L351.874,330.454 C346.685,326.015 340.575,325.242 332.745,328.031 C330.624,328.787 328.277,329.405 327.529,329.405 C326.781,329.405 324.349,328.784 322.124,328.025 C315.502,325.766 311.045,326.196 306.245,329.556 C303.463,331.505 301.198,334.503 299.784,338.11 C298.5,341.384 298.058,348.357 298.861,352.658 C299.442,355.765 301.672,362.105 303.196,364.982 C306.806,371.796 312.862,377.467 316.566,377.501 C317.07,377.507 319.427,376.903 321.804,376.162 L321.804,376.162 M326.675,325.34 C325.684,324.37 326.944,319.119 328.857,316.253 C331.44,312.382 336.828,309.009 340.43,309.009 L342.149,309.008 L342.149,310.863 C342.149,317.865 335.933,324.882 329.229,325.447 C327.991,325.552 326.842,325.504 326.675,325.34 L326.675,325.34 M332.692,323.401 C336.899,321.509 340.516,316.448 340.863,311.971 L341.036,309.739 L339.873,309.994 C333.659,311.352 328.22,316.951 327.687,322.537 L327.467,324.842 L329.043,324.588 C329.91,324.448 331.552,323.914 332.692,323.401 L332.692,323.401 Z" style="stroke:#1bff02;stroke-opacity:1;stroke-width:0.5;stroke-linejoin:miter;stroke-miterlimit:2;stroke-linecap:butt;fill:none;" class="gEEiHZlJ_2"></path>
        </g>
        <g id="Shape4">
            <desc shapeid="4" type="0" basicinfo-basictype="0" basicinfo-roundedrectradius="12" basicinfo-polygonsides="6" basicinfo-starpoints="5" bounding="rect(-34.4913,-38.8543,68.9827,77.7086)" text="" font-familyname="" font-pixelsize="20" font-bold="0" font-underline="0" font-alignment="1" strokestyle="0" markerstart="0" markerend="0" shadowenabled="0" shadowoffsetx="0" shadowoffsety="2" shadowblur="4" shadowopacity="160" blurenabled="0" blurradius="4" transform="matrix(2.60534,0,0,2.60534,327.22,330.256)" pers-center="0,0" pers-size="0,0" pers-start="0,0" pers-end="0,0" locked="0" mesh="" flag=""></desc>
            <path id="shapePath4" d="M291.019,431.032 C272.057,427.083 250.011,398.27 240.651,365.204 C237.154,352.85 236.296,333.035 238.787,322.173 C243.046,303.606 255.038,288.344 270.773,281.467 C278.303,278.177 280.119,277.845 290.615,277.845 C300.835,277.845 303.657,278.327 315.055,282.025 C329.189,286.61 328.289,286.633 343.412,281.322 C361.259,275.055 377.273,275.213 392.241,281.805 C399.627,285.058 411.067,294.776 410.971,297.717 C410.945,298.515 408.47,300.833 405.472,302.869 C398.61,307.527 392.33,316.286 389.661,324.92 C384.104,342.901 393.511,363.353 411.931,373.334 C414.773,374.875 417.091,376.745 417.082,377.491 C417.049,379.988 405.008,402.015 399.554,409.551 C384.377,430.525 372.122,434.911 349.491,427.466 C335.31,422.8 327.791,422.779 313.115,427.364 C300.051,431.445 296.128,432.096 291.019,431.032 M310.937,424.858 C328.075,419.677 334.264,419.69 351.864,424.94 C361.861,427.922 366.409,428.763 369.614,428.223 C379.136,426.618 389.493,418.484 398.431,405.591 C402.98,399.031 414.027,378.361 413.264,377.84 C413.032,377.682 410.927,376.485 408.586,375.179 C402.14,371.585 393.299,362.69 389.878,356.356 C383.393,344.35 383.393,327.902 389.878,315.587 C391.782,311.971 396.241,306.555 400.299,302.928 L407.392,296.588 L401.336,291.564 C385.736,278.622 367.367,276.365 343.83,284.499 C337.454,286.703 330.398,288.506 328.149,288.506 C325.9,288.505 318.588,286.694 311.899,284.481 C291.993,277.893 278.592,279.147 264.165,288.948 C255.801,294.629 248.992,303.373 244.74,313.892 C240.88,323.44 239.551,343.772 241.966,356.314 C243.712,365.376 250.415,383.865 254.996,392.254 C265.849,412.126 284.056,428.662 295.192,428.761 C296.706,428.774 303.792,427.018 310.937,424.858 L310.937,424.858 M325.581,276.654 C322.601,273.824 326.391,258.512 332.14,250.155 C339.907,238.867 356.105,229.03 366.931,229.028 L372.1,229.028 L372.1,234.435 C372.1,254.856 353.414,275.317 333.258,276.966 C329.537,277.271 326.083,277.13 325.581,276.654 M343.671,270.999 C356.316,265.48 367.192,250.722 368.233,237.669 L368.753,231.16 L365.258,231.901 C346.576,235.863 330.225,252.189 328.624,268.479 L327.963,275.202 L332.701,274.46 C335.307,274.052 340.243,272.495 343.671,270.999 Z" style="stroke:#00e7ff;stroke-opacity:1;stroke-width:1.5;stroke-linejoin:miter;stroke-miterlimit:2;stroke-linecap:butt;fill:none;" class="gEEiHZlJ_3"></path>
        </g>
        <g id="Shape5">
            <desc shapeid="5" type="2" basicinfo-basictype="0" basicinfo-roundedrectradius="12" basicinfo-polygonsides="6" basicinfo-starpoints="5" bounding="rect(-139.135,-16.3589,278.27,32.7178)" text="APPLE Inc" font-familyname="Prestige Elite Std" font-pixelsize="38" font-bold="1" font-underline="0" font-alignment="1" strokestyle="0" markerstart="0" markerend="0" shadowenabled="0" shadowoffsetx="0" shadowoffsety="2" shadowblur="4" shadowopacity="160" blurenabled="0" blurradius="4" transform="matrix(1,0,0,1,340.018,614.19)" pers-center="0,0" pers-size="0,0" pers-start="0,0" pers-end="0,0" locked="0" mesh="" flag=""></desc>
            <path id="shapePath5" d="M248.688,594.84 L240.062,617.64 L238.162,617.64 L238.162,619.768 L245.762,619.768 L245.762,617.64 L242.456,617.64 L244.242,612.738 L253.286,612.738 L255.11,617.64 L251.842,617.64 L251.842,619.768 L259.518,619.768 L259.518,617.64 L257.618,617.64 L248.688,594.84 M252.526,610.61 L244.964,610.61 L248.688,600.16 L252.526,610.61 M268.483,610.002 L271.713,610.078 C277.261,610.192 280.111,607.228 280.111,602.934 C280.111,598.678 277.033,596.968 273.423,596.968 C271.257,596.968 269.091,597.424 266.925,597.424 C265.595,597.424 264.303,597.12 262.973,596.968 L262.973,598.792 L266.127,599.172 L266.127,617.64 L262.973,617.64 L262.973,619.768 L274.183,619.768 L274.183,617.64 L268.483,617.64 L268.483,610.002 M268.483,599.172 C269.965,599.02 271.447,598.716 272.967,598.716 C275.627,598.716 277.641,600.122 277.641,602.972 C277.641,606.164 275.703,608.064 271.637,607.95 L268.483,607.874 L268.483,599.172 M291.28,610.002 L294.51,610.078 C300.058,610.192 302.908,607.228 302.908,602.934 C302.908,598.678 299.83,596.968 296.22,596.968 C294.054,596.968 291.888,597.424 289.722,597.424 C288.392,597.424 287.1,597.12 285.77,596.968 L285.77,598.792 L288.924,599.172 L288.924,617.64 L285.77,617.64 L285.77,619.768 L296.98,619.768 L296.98,617.64 L291.28,617.64 L291.28,610.002 M291.28,599.172 C292.762,599.02 294.244,598.716 295.764,598.716 C298.424,598.716 300.438,600.122 300.438,602.972 C300.438,606.164 298.5,608.064 294.434,607.95 L291.28,607.874 L291.28,599.172 M307.503,596.968 L307.503,599.096 L311.607,599.096 L311.607,617.64 L307.503,617.64 L307.503,619.768 L326.389,619.768 L326.389,611.788 L324.033,611.788 L324.033,612.852 C324.033,616.918 324.147,617.64 319.967,617.64 L313.963,617.64 L313.963,599.096 L318.257,599.096 L318.257,596.968 L307.503,596.968 M348.958,619.768 L348.958,612.358 L346.602,612.358 L346.602,613.08 C346.602,617.298 346.336,617.64 343.448,617.64 L336.342,617.64 L336.342,608.406 L341.548,608.406 L341.548,611.978 L343.904,611.978 L343.904,603.086 L341.548,603.086 L341.548,606.278 L336.342,606.278 L336.342,599.096 L342.764,599.096 C345.766,599.096 345.88,599.438 345.88,602.592 L345.88,603.58 L348.236,603.58 L348.236,596.968 L330.186,596.968 L330.186,599.096 L333.986,599.096 L333.986,617.64 L330.186,617.64 L330.186,619.768 L348.958,619.768 M378.363,596.968 L378.363,599.096 L384.443,599.096 L384.443,617.64 L378.363,617.64 L378.363,619.768 L392.879,619.768 L392.879,617.64 L386.799,617.64 L386.799,599.096 L392.879,599.096 L392.879,596.968 L378.363,596.968 M403.934,607.836 C405.72,606.734 407.81,605.708 409.976,605.708 C413.092,605.708 412.94,608.292 412.94,610.61 L412.94,617.64 L410.356,617.64 L410.356,619.768 L417.88,619.768 L417.88,617.64 L415.296,617.64 L415.296,610.534 C415.296,609.052 415.334,607.304 414.65,605.974 C413.776,604.264 411.8,603.58 409.976,603.58 C407.772,603.58 405.872,604.492 403.934,605.404 L403.934,604.834 C403.934,603.998 403.934,602.934 402.832,602.934 C402.338,602.934 402.11,603.238 401.806,603.58 C400.932,604.378 399.678,604.53 398.462,604.606 L398.804,606.544 L401.578,606.164 L401.578,617.64 L398.994,617.64 L398.994,619.768 L406.518,619.768 L406.518,617.64 L403.934,617.64 L403.934,607.836 M438.321,616.424 C436.383,617.412 434.027,618.096 431.861,618.096 C428.099,618.096 425.553,615.55 425.553,611.788 C425.553,608.254 428.061,605.708 431.595,605.708 C433.989,605.708 435.319,606.544 435.243,609.014 L435.205,610.078 L437.637,610.078 L437.523,608.14 L437.599,606.24 C436.535,604.226 433.875,603.58 431.785,603.58 C426.845,603.58 423.083,607.038 423.083,612.054 C423.083,617.032 426.959,620.224 431.785,620.224 C434.217,620.224 436.991,619.54 439.157,618.362 L438.321,616.424 Z" style="stroke:#000000;stroke-opacity:1;stroke-width:1;stroke-linejoin:miter;stroke-miterlimit:2;stroke-linecap:round;fill:none;" class="gEEiHZlJ_4"></path>
        </g>
    </g>
<style>.gEEiHZlJ_0{stroke-dasharray:3197 3199;stroke-dashoffset:3198;animation:gEEiHZlJ_draw_0 5200ms ease-in 0ms infinite,gEEiHZlJ_fade 5200ms linear 0ms infinite;}.gEEiHZlJ_1{stroke-dasharray:200 202;stroke-dashoffset:201;animation:gEEiHZlJ_draw_1 5200ms ease-in 0ms infinite,gEEiHZlJ_fade 5200ms linear 0ms infinite;}.gEEiHZlJ_2{stroke-dasharray:485 487;stroke-dashoffset:486;animation:gEEiHZlJ_draw_2 5200ms ease-in 0ms infinite,gEEiHZlJ_fade 5200ms linear 0ms infinite;}.gEEiHZlJ_3{stroke-dasharray:1438 1440;stroke-dashoffset:1439;animation:gEEiHZlJ_draw_3 5200ms ease-in 0ms infinite,gEEiHZlJ_fade 5200ms linear 0ms infinite;}.gEEiHZlJ_4{stroke-dasharray:947 949;stroke-dashoffset:948;animation:gEEiHZlJ_draw_4 5200ms ease-in 0ms infinite,gEEiHZlJ_fade 5200ms linear 0ms infinite;}@keyframes gEEiHZlJ_draw{100%{stroke-dashoffset:0;}}@keyframes gEEiHZlJ_fade{0%{stroke-opacity:1;}92.3076923076923%{stroke-opacity:1;}100%{stroke-opacity:0;}}@keyframes gEEiHZlJ_draw_0{15.384615384615385%{stroke-dashoffset: 3198}44.80106946624803%{ stroke-dashoffset: 0;}100%{ stroke-dashoffset: 0;}}@keyframes gEEiHZlJ_draw_1{44.80106946624803%{stroke-dashoffset: 201}46.64994603610675%{ stroke-dashoffset: 0;}100%{ stroke-dashoffset: 0;}}@keyframes gEEiHZlJ_draw_2{46.64994603610675%{stroke-dashoffset: 486}51.12036401098901%{ stroke-dashoffset: 0;}100%{ stroke-dashoffset: 0;}}@keyframes gEEiHZlJ_draw_3{51.12036401098901%{stroke-dashoffset: 1439}64.35684850863422%{ stroke-dashoffset: 0;}100%{ stroke-dashoffset: 0;}}@keyframes gEEiHZlJ_draw_4{64.35684850863422%{stroke-dashoffset: 948}73.07692307692307%{ stroke-dashoffset: 0;}100%{ stroke-dashoffset: 0;}}</style></svg>
