<!--?xml version="1.0"?-->
<svg version="1.1" xmlns="http://www.w3.org/2000/svg" xmlns:xlink="http://www.w3.org/1999/xlink" width="512" height="512">
    <desc ivinci="yes" version="4.6" gridstep="20" showgrid="no" snaptogrid="no" codeplatform="0"></desc>
    <g id="Layer1" name="Layer 1" opacity="1">
        <g id="Shape1">
            <desc shapeid="1" type="0" basicinfo-basictype="0" basicinfo-roundedrectradius="12" basicinfo-polygonsides="6" basicinfo-starpoints="5" bounding="rect(-203.488,-203.586,406.976,407.173)" text="" font-familyname="" font-pixelsize="20" font-bold="0" font-underline="0" font-alignment="1" strokestyle="0" markerstart="0" markerend="0" shadowenabled="0" shadowoffsetx="0" shadowoffsety="2" shadowblur="4" shadowopacity="160" blurenabled="0" blurradius="4" transform="matrix(1,0,0,1,258.16,256.101)" pers-center="0,0" pers-size="0,0" pers-start="0,0" pers-end="0,0" locked="0" mesh="" flag=""></desc>
            <path id="shapePath1" d="M241.034,459.423 C239.719,459.245 235.419,458.707 231.477,458.227 C153.13,448.696 85.0198,390.569 62.6393,314.138 C56.357,292.683 54.6717,280.386 54.6717,255.999 C54.6717,236.15 55.253,229.668 58.3859,214.586 C74.8902,135.129 137.286,72.7329 216.743,56.2286 C231.825,53.0958 238.307,52.5144 258.157,52.5144 C282.543,52.5144 294.84,54.1997 316.295,60.4821 C348.634,69.9516 377.894,87.4217 402.314,111.842 C434.321,143.849 453.609,182.744 460.57,229.319 C462.007,238.936 462.007,273.063 460.57,282.679 C455.748,314.939 445.12,343.185 428.249,368.576 C420.108,380.828 413.059,389.412 402.314,400.157 C370.955,431.516 333.016,450.67 287.861,457.94 C280.459,459.131 246.754,460.199 241.034,459.423 M270.284,368.94 L270.501,354.453 L277.271,353.338 C300.953,349.439 318.233,335.26 325.532,313.74 C328.431,305.189 329.18,288.17 327.073,278.7 C325.045,269.586 320.168,260.682 313.508,253.937 C305.025,245.345 295.05,240.044 267.714,229.596 C241.267,219.488 236.543,215.441 236.718,203.037 C236.831,195.02 241.17,188.129 248.312,184.622 C252.273,182.678 253.944,182.331 259.351,182.331 C267.407,182.331 272.802,184.757 278.763,191.059 C282.114,194.602 287.737,204.174 289.402,209.167 C289.652,209.917 320.621,197.835 322.012,196.444 C322.79,195.666 318.081,184.062 314.636,178.273 C306.473,164.551 292.21,155.046 274.682,151.647 L270.103,150.759 L270.103,139.666 L270.103,128.572 L258.157,128.572 L246.21,128.572 L246.21,139.707 L246.21,150.842 L244.02,151.3 C226.606,154.943 216.35,160.34 208.205,170.148 C203.827,175.419 198.072,187.056 196.469,193.879 C191.203,216.283 196.812,236.63 212.175,250.853 C218.979,257.153 230.614,263.061 250.591,270.36 C280.657,281.346 285.483,285.187 285.586,298.209 C285.625,303.204 285.266,304.93 283.394,308.741 C279.025,317.639 271.955,321.306 259.166,321.306 C241.854,321.306 231.562,313.774 226.544,297.433 C225.397,293.699 224.406,290.565 224.342,290.47 C224.279,290.374 216.181,292.371 206.348,294.908 C191.194,298.817 188.438,299.753 188.263,301.055 C187.92,303.594 193.159,317.582 196.908,324.135 C205.587,339.309 220.805,350.199 237.45,353.15 C240.297,353.654 243.433,354.229 244.418,354.426 C246.197,354.783 246.21,354.892 246.21,369.106 L246.21,383.426 L258.139,383.426 L270.067,383.426 L270.284,368.94 Z" style="stroke:#000000;stroke-opacity:1;stroke-width:1;stroke-linejoin:miter;stroke-miterlimit:2;stroke-linecap:butt;fill:none;" class="KRaACSXS_0"></path>
        </g>
        <g id="Shape2">
            <desc shapeid="2" type="0" basicinfo-basictype="0" basicinfo-roundedrectradius="12" basicinfo-polygonsides="6" basicinfo-starpoints="5" bounding="rect(-203.643,-203.684,407.285,407.367)" text="" font-familyname="" font-pixelsize="20" font-bold="0" font-underline="0" font-alignment="1" strokestyle="0" markerstart="0" markerend="0" shadowenabled="0" shadowoffsetx="0" shadowoffsety="2" shadowblur="4" shadowopacity="160" blurenabled="0" blurradius="4" transform="matrix(1,0,0,1,258.16,256.198)" pers-center="0,0" pers-size="0,0" pers-start="0,0" pers-end="0,0" locked="0" mesh="" flag=""></desc>
            <path id="shapePath2" d="M240.689,459.194 C236.09,458.822 227.474,457.631 221.543,456.547 C138.164,441.305 73.3096,376.535 57.9038,293.122 C45.736,227.241 66.7816,159.564 114.174,112.172 C161.567,64.7789 229.244,43.7333 295.125,55.9012 C378.478,71.2958 443.123,135.941 458.517,219.293 C465.338,256.221 461.437,296.752 447.76,331.071 C414.296,415.04 331.125,466.501 240.689,459.194 M270.953,369.335 L270.953,355.036 L273.94,354.541 C282.33,353.15 290.426,350.634 297.235,347.3 C303.569,344.198 305.914,342.475 311.636,336.714 C323.66,324.61 328.695,311.642 328.671,292.843 C328.657,281.304 327.402,275.532 323.002,266.752 C319.834,260.431 312.905,252.333 306.878,247.909 C301.16,243.711 287.422,237.148 271.962,231.228 C241.447,219.542 237.271,216.325 237.189,204.441 C237.145,197.923 238.506,193.952 242.179,189.876 C246.573,185.002 251.683,182.955 259.477,182.945 C265.084,182.939 266.555,183.255 270.813,185.382 C278.285,189.116 283.233,195.535 288.95,208.91 C289.648,210.542 290.147,210.393 305.598,203.965 C314.358,200.32 321.871,197.208 322.292,197.05 C322.714,196.891 321.825,193.572 320.318,189.672 C312.736,170.061 298.222,157.201 278.32,152.459 L270.953,150.704 L270.953,139.743 L270.953,128.781 L258.609,128.781 L246.264,128.781 L246.264,139.743 L246.264,150.704 L239.296,152.394 C229.015,154.888 223.868,157.076 217.441,161.685 C210.429,166.712 205.113,173.153 200.929,181.688 C196.591,190.538 195.252,196.085 194.763,207.228 C194.262,218.657 195.544,225.9 199.552,234.278 C207.617,251.139 217.947,258.623 249.052,270.138 C281.03,281.976 285.289,285.419 285.289,299.436 C285.289,303.766 284.847,305.506 282.684,309.698 C278.458,317.883 271.154,321.514 258.913,321.514 C241.637,321.514 230.508,312.614 226.101,295.272 C225.494,292.884 224.657,290.818 224.241,290.679 C223.636,290.477 191.999,298.344 188.365,299.6 C187.656,299.845 187.822,301.422 189.005,305.69 C196.529,332.844 214.836,349.998 240.889,354.308 L246.264,355.197 L246.264,369.416 L246.264,383.635 L258.609,383.635 L270.953,383.635 L270.953,369.335 Z" style="stroke:#0009ff;stroke-opacity:1;stroke-width:4.5;stroke-linejoin:miter;stroke-miterlimit:2;stroke-linecap:butt;fill:none;" class="KRaACSXS_1"></path>
        </g>
        <g id="Shape3">
            <desc shapeid="3" type="0" basicinfo-basictype="4" basicinfo-roundedrectradius="12" basicinfo-polygonsides="6" basicinfo-starpoints="5" bounding="rect(-122.254,-144.944,244.508,289.888)" text="" font-familyname="Helvetica" font-pixelsize="20" font-bold="0" font-underline="0" font-alignment="1" strokestyle="0" markerstart="0" markerend="0" shadowenabled="0" shadowoffsetx="0" shadowoffsety="2" shadowblur="4" shadowopacity="160" blurenabled="0" blurradius="4" transform="matrix(1.35734,0,0,1.16355,258.371,259.747)" pers-center="0,0" pers-size="0,0" pers-start="0,0" pers-end="0,0" locked="0" mesh="" flag=""></desc>
            <path id="shapePath3" d="M92.4303,259.747 C92.4303,166.605 166.724,91.0978 258.371,91.0978 C350.017,91.0978 424.311,166.605 424.311,259.748 C424.311,352.89 350.017,428.397 258.371,428.397 C166.724,428.397 92.4303,352.89 92.4303,259.747 Z" style="stroke:#aa86ff;stroke-opacity:1;stroke-width:24;stroke-linejoin:miter;stroke-miterlimit:2;stroke-linecap:butt;fill:none;" class="KRaACSXS_2"></path>
        </g>
        <g id="Shape4">
            <desc shapeid="4" type="0" basicinfo-basictype="2" basicinfo-roundedrectradius="12" basicinfo-polygonsides="6" basicinfo-starpoints="5" bounding="rect(-221.301,-212.73,442.603,425.46)" text="" font-familyname="Helvetica" font-pixelsize="20" font-bold="0" font-underline="0" font-alignment="1" strokestyle="0" markerstart="0" markerend="0" shadowenabled="0" shadowoffsetx="0" shadowoffsety="2" shadowblur="4" shadowopacity="160" blurenabled="0" blurradius="4" transform="matrix(1.07042,0,0,1.08425,257.925,259.484)" pers-center="0,0" pers-size="0,0" pers-start="0,0" pers-end="0,0" locked="0" mesh="" flag=""></desc>
            <path id="shapePath4" d="M21.0392,41.8424 C21.0392,34.6566 26.7901,28.8315 33.8843,28.8315 L481.966,28.8315 C489.06,28.8315 494.811,34.6566 494.811,41.8424 L494.811,477.125 C494.811,484.311 489.06,490.136 481.966,490.136 L33.8843,490.136 C26.7901,490.136 21.0392,484.311 21.0392,477.125 L21.0392,41.8424 Z" style="stroke:#000000;stroke-opacity:1;stroke-width:17;stroke-linejoin:miter;stroke-miterlimit:2;stroke-linecap:butt;fill:none;" class="KRaACSXS_3"></path>
        </g>
        <g id="Shape5">
            <desc shapeid="5" type="0" basicinfo-basictype="4" basicinfo-roundedrectradius="12" basicinfo-polygonsides="6" basicinfo-starpoints="5" bounding="rect(-110.4,-113.249,220.799,226.497)" text="" font-familyname="Helvetica" font-pixelsize="20" font-bold="0" font-underline="0" font-alignment="1" strokestyle="0" markerstart="0" markerend="0" shadowenabled="0" shadowoffsetx="0" shadowoffsety="2" shadowblur="4" shadowopacity="160" blurenabled="0" blurradius="4" transform="matrix(1.26757,0,0,1.272,258.371,259.855)" pers-center="0,0" pers-size="0,0" pers-start="0,0" pers-end="0,0" locked="0" mesh="" flag=""></desc>
            <path id="shapePath5" d="M118.432,259.855 C118.432,180.297 181.085,115.802 258.371,115.802 C335.657,115.802 398.309,180.297 398.309,259.855 C398.309,339.413 335.657,403.907 258.371,403.907 C181.085,403.907 118.432,339.413 118.432,259.855 Z" style="stroke:#ff1300;stroke-opacity:1;stroke-width:3;stroke-linejoin:miter;stroke-miterlimit:2;stroke-linecap:butt;fill:none;" class="KRaACSXS_4"></path>
        </g>
        <g id="Shape6">
            <desc shapeid="6" type="0" basicinfo-basictype="0" basicinfo-roundedrectradius="12" basicinfo-polygonsides="6" basicinfo-starpoints="5" bounding="rect(-86.6832,-97.7353,173.366,195.471)" text="" font-familyname="Helvetica" font-pixelsize="20" font-bold="0" font-underline="0" font-alignment="1" strokestyle="0" markerstart="0" markerend="0" shadowenabled="0" shadowoffsetx="0" shadowoffsety="2" shadowblur="4" shadowopacity="160" blurenabled="0" blurradius="4" transform="matrix(2.64396,0,0,2.27514,257.133,260.597)" pers-center="0,0" pers-size="0,0" pers-start="0,0" pers-end="0,0" locked="0" mesh="" flag=""></desc>
            <path id="shapePath6" d="M257.133,38.2348 L265.651,190.525 L310.077,44.249 L282.228,194.343 L360.166,61.9672 L297.452,201.774 L404.701,90.4343 L310.502,212.416 L441.28,128.116 L320.675,225.697 L467.932,172.98 L327.423,240.9 L483.22,222.608 L330.381,257.205 L486.319,274.325 L329.39,273.734 L477.063,325.342 L324.504,289.595 L455.95,372.91 L315.986,303.934 L424.119,414.464 L304.295,315.977 L383.285,447.763 L290.062,325.075 L335.651,471.012 L274.053,330.737 L283.783,482.959 L257.132,332.659 L230.479,482.958 L240.211,330.737 L178.612,471.011 L224.203,325.074 L130.978,447.761 L209.969,315.976 L90.1446,414.461 L198.279,303.933 L58.314,372.907 L189.761,289.594 L37.2018,325.339 L184.875,273.733 L27.9461,274.322 L183.885,257.204 L31.0461,222.605 L186.843,240.899 L46.3345,172.977 L193.591,225.696 L72.9871,128.113 L203.764,212.416 L109.567,90.4322 L216.815,201.773 L154.102,61.9658 L232.039,194.343 L204.192,44.2482 L248.616,190.525 L257.133,38.2348 Z" style="stroke:#181619;stroke-opacity:0.6;stroke-width:0.5;stroke-linejoin:miter;stroke-miterlimit:2;stroke-linecap:butt;fill:none;" class="KRaACSXS_5"></path>
        </g>
    </g>
<style>.KRaACSXS_0{stroke-dasharray:2289 2291;stroke-dashoffset:2290;animation:KRaACSXS_draw_0 20900ms ease-in-out 0ms infinite,KRaACSXS_fade 20900ms linear 0ms infinite;}.KRaACSXS_1{stroke-dasharray:2289 2291;stroke-dashoffset:2290;animation:KRaACSXS_draw_1 20900ms ease-in-out 0ms infinite,KRaACSXS_fade 20900ms linear 0ms infinite;}.KRaACSXS_2{stroke-dasharray:1052 1054;stroke-dashoffset:1053;animation:KRaACSXS_draw_2 20900ms ease-in-out 0ms infinite,KRaACSXS_fade 20900ms linear 0ms infinite;}.KRaACSXS_3{stroke-dasharray:1848 1850;stroke-dashoffset:1849;animation:KRaACSXS_draw_3 20900ms ease-in-out 0ms infinite,KRaACSXS_fade 20900ms linear 0ms infinite;}.KRaACSXS_4{stroke-dasharray:893 895;stroke-dashoffset:894;animation:KRaACSXS_draw_4 20900ms ease-in-out 0ms infinite,KRaACSXS_fade 20900ms linear 0ms infinite;}.KRaACSXS_5{stroke-dasharray:8356 8358;stroke-dashoffset:8357;animation:KRaACSXS_draw_5 20900ms ease-in-out 0ms infinite,KRaACSXS_fade 20900ms linear 0ms infinite;}@keyframes KRaACSXS_draw{100%{stroke-dashoffset:0;}}@keyframes KRaACSXS_fade{0%{stroke-opacity:1;}98.08612440191388%{stroke-opacity:1;}100%{stroke-opacity:0;}}@keyframes KRaACSXS_draw_0{0.9569377990430622%{stroke-dashoffset: 2290}96.65071770334929%{ stroke-dashoffset: 0;}100%{ stroke-dashoffset: 0;}}@keyframes KRaACSXS_draw_1{0.9569377990430622%{stroke-dashoffset: 2290}96.65071770334929%{ stroke-dashoffset: 0;}100%{ stroke-dashoffset: 0;}}@keyframes KRaACSXS_draw_2{0.9569377990430622%{stroke-dashoffset: 1053}96.65071770334929%{ stroke-dashoffset: 0;}100%{ stroke-dashoffset: 0;}}@keyframes KRaACSXS_draw_3{0.9569377990430622%{stroke-dashoffset: 1849}96.65071770334929%{ stroke-dashoffset: 0;}100%{ stroke-dashoffset: 0;}}@keyframes KRaACSXS_draw_4{0.9569377990430622%{stroke-dashoffset: 894}96.65071770334929%{ stroke-dashoffset: 0;}100%{ stroke-dashoffset: 0;}}@keyframes KRaACSXS_draw_5{0.9569377990430622%{stroke-dashoffset: 8357}96.65071770334929%{ stroke-dashoffset: 0;}100%{ stroke-dashoffset: 0;}}</style></svg>
