<!--?xml version="1.0"?-->
<svg version="1.1" xmlns="http://www.w3.org/2000/svg" xmlns:xlink="http://www.w3.org/1999/xlink" width="640" height="480">
    <desc ivinci="yes" version="4.6" gridstep="20" showgrid="no" snaptogrid="no" codeplatform="0"></desc>
    <g id="Layer1" name="Layer 1" opacity="1">
        <g id="Shape1">
            <desc shapeid="1" type="2" basicinfo-basictype="0" basicinfo-roundedrectradius="12" basicinfo-polygonsides="6" basicinfo-starpoints="5" bounding="rect(-241.306,-68.5324,482.612,137.065)" text="gmail" font-familyname="Vermin Vibes Mert" font-pixelsize="200" font-bold="1" font-underline="0" font-alignment="1" strokestyle="0" markerstart="0" markerend="0" shadowenabled="0" shadowoffsetx="0" shadowoffsety="2" shadowblur="4" shadowopacity="160" blurenabled="0" blurradius="4" transform="matrix(1,0,0,1,326.25,247.378)" pers-center="0,0" pers-size="0,0" pers-start="0,0" pers-end="0,0" locked="0" mesh="" flag=""></desc>
            <path id="shapePath1" d="M82.4999,285.347 L82.4999,185.347 L195,185.347 L170,210.347 L107.5,210.347 L107.5,260.347 L157.5,260.347 L157.5,247.847 L132.5,247.847 L107.5,222.847 L182.5,222.847 L182.5,285.347 L82.4999,285.347 M295,297.847 L270,272.847 L270,247.847 L245,272.847 L220,247.847 L220,285.347 L195,285.347 L195,185.347 L245,235.347 L295,185.347 L295,297.847 M407.5,297.847 L382.5,272.847 L382.5,210.347 L357.5,210.347 L332.5,235.347 L332.5,260.347 L370,260.347 L370,285.347 L307.5,285.347 L307.5,222.847 L345,185.347 L407.5,185.347 L407.5,297.847 M445,297.847 L420,272.847 L420,185.347 L445,185.347 L445,297.847 M457.5,285.347 L457.5,172.847 L482.5,197.847 L482.5,260.347 L557.5,260.347 L557.5,285.347 L457.5,285.347 Z" style="stroke:#ff1100;stroke-opacity:1;stroke-width:3.5;stroke-linejoin:miter;stroke-miterlimit:2;stroke-linecap:round;fill:none;" class="fhJgKfPY_0"></path>
        </g>
        <g id="Shape2">
            <desc shapeid="2" type="0" basicinfo-basictype="0" basicinfo-roundedrectradius="12" basicinfo-polygonsides="6" basicinfo-starpoints="5" bounding="rect(-257.861,-83.9778,515.723,167.956)" text="" font-familyname="Vermin Vibes Mert" font-pixelsize="200" font-bold="1" font-underline="0" font-alignment="1" strokestyle="0" markerstart="0" markerend="0" shadowenabled="0" shadowoffsetx="0" shadowoffsety="2" shadowblur="4" shadowopacity="160" blurenabled="0" blurradius="4" transform="matrix(1,0,0,1,321.586,238.596)" pers-center="0,0" pers-size="0,0" pers-start="0,0" pers-end="0,0" locked="0" mesh="" flag=""></desc>
            <path id="shapePath2" d="M64.7123,154.618 C64.7123,154.618 579.447,155.606 579.447,155.606 C579.447,155.606 579.447,321.586 579.447,321.586 C579.447,321.586 63.7243,322.574 63.7243,322.574 C63.7243,322.574 64.7123,154.618 64.7123,154.618 Z" style="stroke:#0015ff;stroke-opacity:1;stroke-width:18.5;stroke-linejoin:miter;stroke-miterlimit:2;stroke-linecap:round;fill:none;" class="fhJgKfPY_1"></path>
        </g>
    </g>
<style>.fhJgKfPY_0{stroke-dasharray:2538 2540;stroke-dashoffset:2539;animation:fhJgKfPY_draw_0 30600ms linear 0ms infinite,fhJgKfPY_fade 30600ms linear 0ms infinite;}.fhJgKfPY_1{stroke-dasharray:1365 1367;stroke-dashoffset:1366;animation:fhJgKfPY_draw_1 30600ms linear 0ms infinite,fhJgKfPY_fade 30600ms linear 0ms infinite;}@keyframes fhJgKfPY_draw{100%{stroke-dashoffset:0;}}@keyframes fhJgKfPY_fade{0%{stroke-opacity:1;}99.34640522875817%{stroke-opacity:1;}100%{stroke-opacity:0;}}@keyframes fhJgKfPY_draw_0{0.32679738562091504%{stroke-dashoffset: 2539}98.36601307189542%{ stroke-dashoffset: 0;}100%{ stroke-dashoffset: 0;}}@keyframes fhJgKfPY_draw_1{0.32679738562091504%{stroke-dashoffset: 1366}98.36601307189542%{ stroke-dashoffset: 0;}100%{ stroke-dashoffset: 0;}}</style></svg>
