<!--?xml version="1.0"?-->
<svg version="1.1" xmlns="http://www.w3.org/2000/svg" xmlns:xlink="http://www.w3.org/1999/xlink" width="640" height="480" style="">
    <desc ivinci="yes" version="4.6" gridstep="20" showgrid="no" snaptogrid="no" codeplatform="0"></desc>
    <g id="Layer1" name="Layer 1" opacity="1">
        <g id="Shape1">
            <desc shapeid="1" type="2" basicinfo-basictype="0" basicinfo-roundedrectradius="12" basicinfo-polygonsides="6" basicinfo-starpoints="5" bounding="rect(-284.79,-80.4908,569.581,160.982)" text="google" font-familyname="Perfect Dark BRK" font-pixelsize="100" font-bold="1" font-underline="0" font-alignment="1" strokestyle="0" markerstart="0" markerend="0" shadowenabled="0" shadowoffsetx="0" shadowoffsety="2" shadowblur="4" shadowopacity="160" blurenabled="0" blurradius="4" transform="matrix(1,0,0,1,320.061,213.32)" pers-center="0,0" pers-size="0,0" pers-start="0,0" pers-end="0,0" locked="0" mesh="" flag=""></desc>
            <path id="shapePath1" d="M73.3109,195.32 L94.3109,195.32 L73.3109,216.32 L87.3109,230.32 L129.311,230.32 L143.311,244.32 L80.3109,244.32 L52.3109,216.32 L73.3109,195.32 M80.3109,188.32 L94.3109,174.32 L167.811,174.32 L153.811,188.32 L80.3109,188.32 M97.8109,216.32 L111.811,202.32 L150.311,202.32 L150.311,244.32 L132.811,226.82 L132.811,216.32 L97.8109,216.32 M195.811,174.32 L223.811,174.32 L244.811,195.32 L244.811,240.82 L227.311,223.32 L227.311,198.82 L216.811,188.32 L181.811,188.32 L195.811,174.32 M174.811,195.32 L195.811,195.32 L174.811,216.32 L188.811,230.32 L227.311,230.32 L241.311,244.32 L181.811,244.32 L153.811,216.32 L174.811,195.32 M290.311,174.32 L318.311,174.32 L339.311,195.32 L339.311,240.82 L321.811,223.32 L321.811,198.82 L311.311,188.32 L276.311,188.32 L290.311,174.32 M269.311,195.32 L290.311,195.32 L269.311,216.32 L283.311,230.32 L321.811,230.32 L335.811,244.32 L276.311,244.32 L248.311,216.32 L269.311,195.32 M363.811,195.32 L384.811,195.32 L363.811,216.32 L377.811,230.32 L419.811,230.32 L433.811,244.32 L370.811,244.32 L342.811,216.32 L363.811,195.32 M370.811,188.32 L384.811,174.32 L458.311,174.32 L444.311,188.32 L370.811,188.32 M388.311,216.32 L402.311,202.32 L440.811,202.32 L440.811,244.32 L423.311,226.82 L423.311,216.32 L388.311,216.32 M444.311,174.32 L461.811,174.32 L461.811,230.32 L510.811,230.32 L524.811,244.32 L444.311,244.32 L444.311,174.32 M524.811,188.32 L511.311,174.32 L608.811,174.32 L594.811,188.32 L524.811,188.32 M528.311,195.32 L545.811,195.32 L545.811,198.82 L580.811,198.82 L566.811,212.82 L545.811,212.82 L545.811,230.32 L577.311,230.32 L591.311,244.32 L528.311,244.32 L528.311,195.32 Z" style="stroke:#003ef6;stroke-opacity:1;stroke-width:3.5;stroke-linejoin:miter;stroke-miterlimit:2;stroke-linecap:round;fill:none;" class="PKfxCGdC_0"></path>
        </g>
    </g>
<style>.PKfxCGdC_0{stroke-dasharray:2980 2982;stroke-dashoffset:2981;animation:PKfxCGdC_draw_0 60140ms linear 0ms infinite,PKfxCGdC_fade 60140ms linear 0ms infinite;}@keyframes PKfxCGdC_draw{100%{stroke-dashoffset:0;}}@keyframes PKfxCGdC_fade{0%{stroke-opacity:1;}99.98337213169272%{stroke-opacity:1;}100%{stroke-opacity:0;}}@keyframes PKfxCGdC_draw_0{0.16627868307283006%{stroke-dashoffset: 2981}99.93348852677086%{ stroke-dashoffset: 0;}100%{ stroke-dashoffset: 0;}}</style></svg>
