<!--?xml version="1.0"?-->
<svg version="1.1" xmlns="http://www.w3.org/2000/svg" xmlns:xlink="http://www.w3.org/1999/xlink" width="640" height="480">
    <desc ivinci="yes" version="4.6" gridstep="20" showgrid="no" snaptogrid="no" codeplatform="0"></desc>
    <g id="Layer1" name="Layer 1" opacity="1">
        <g id="Shape1">
            <desc shapeid="1" type="2" basicinfo-basictype="0" basicinfo-roundedrectradius="12" basicinfo-polygonsides="6" basicinfo-starpoints="5" bounding="rect(-80.5521,-57.5,161.104,115)" text="M" font-familyname="monster rock" font-pixelsize="120" font-bold="1" font-underline="0" font-alignment="1" strokestyle="0" markerstart="0" markerend="0" shadowenabled="0" shadowoffsetx="0" shadowoffsety="2" shadowblur="4" shadowopacity="160" blurenabled="0" blurradius="4" transform="matrix(1,0,0,1,146.16,229.594)" pers-center="0,0" pers-size="0,0" pers-start="0,0" pers-end="0,0" locked="0" mesh="" flag=""></desc>
            <path id="shapePath1" d="M134.089,191.969 L134.089,192.203 C120.808,242.438 113.777,268.609 112.996,270.719 L72.2143,270.719 L71.7455,270.25 L92.8393,191.969 L134.089,191.969 M137.371,192.203 L147.449,230.641 L147.683,230.641 L158.23,191.969 L199.246,191.969 C199.675,191.969 201.238,197.516 203.933,208.609 L220.574,270.484 L220.339,270.719 L179.558,270.719 C179.246,270.719 179.089,270.484 179.089,270.016 L178.855,269.781 L178.621,269.781 C178.621,270.406 178.464,270.719 178.152,270.719 L117.214,270.719 L116.746,270.25 L116.746,267.672 L136.902,192.203 L137.371,192.203 Z" style="stroke:#00e3ff;stroke-opacity:1;stroke-width:1.5;stroke-linejoin:miter;stroke-miterlimit:2;stroke-linecap:round;fill:none;" class="nerhQHoe_0"></path>
        </g>
        <g id="Shape2">
            <desc shapeid="2" type="2" basicinfo-basictype="0" basicinfo-roundedrectradius="12" basicinfo-polygonsides="6" basicinfo-starpoints="5" bounding="rect(-55.8603,-57.5,111.721,115)" text="I" font-familyname="monster rock" font-pixelsize="120" font-bold="1" font-underline="0" font-alignment="1" strokestyle="0" markerstart="0" markerend="0" shadowenabled="0" shadowoffsetx="0" shadowoffsety="2" shadowblur="4" shadowopacity="160" blurenabled="0" blurradius="4" transform="matrix(1,0,0,1,535.755,229.594)" pers-center="0,0" pers-size="0,0" pers-start="0,0" pers-end="0,0" locked="0" mesh="" flag=""></desc>
            <path id="shapePath2" d="M515.482,191.969 L556.029,191.969 L556.497,192.438 L556.497,270.25 L556.029,270.719 L515.482,270.719 L515.013,270.25 L515.013,192.438 L515.482,191.969 Z" style="stroke:#ff1896;stroke-opacity:1;stroke-width:4;stroke-linejoin:miter;stroke-miterlimit:2;stroke-linecap:round;fill:none;" class="nerhQHoe_1"></path>
        </g>
        <g id="Shape3">
            <desc shapeid="3" type="2" basicinfo-basictype="0" basicinfo-roundedrectradius="12" basicinfo-polygonsides="6" basicinfo-starpoints="5" bounding="rect(-78.2552,-57.5,156.51,115)" text="O" font-familyname="monster rock" font-pixelsize="120" font-bold="1" font-underline="0" font-alignment="1" strokestyle="0" markerstart="0" markerend="0" shadowenabled="0" shadowoffsetx="0" shadowoffsety="2" shadowblur="4" shadowopacity="160" blurenabled="0" blurradius="4" transform="matrix(1,0,0,1,304.341,229.594)" pers-center="0,0" pers-size="0,0" pers-start="0,0" pers-end="0,0" locked="0" mesh="" flag=""></desc>
            <path id="shapePath3" d="M281.255,191.969 L327.427,191.969 C336.333,191.969 342.661,196.734 346.411,206.266 C346.88,208.258 347.115,210.133 347.115,211.891 L347.115,251.266 C347.115,259.469 342.818,265.563 334.224,269.547 C332.31,270.328 330.279,270.719 328.13,270.719 L280.083,270.719 C273.638,270.719 268.247,267.203 263.911,260.172 C262.349,257.399 261.568,254.195 261.568,250.563 L261.568,212.125 C261.568,203.961 265.396,197.867 273.052,193.844 C275.435,192.594 278.169,191.969 281.255,191.969 M303.052,211.891 L303.052,240.953 C303.052,241.774 303.443,242.32 304.224,242.594 C305.161,242.281 305.63,241.969 305.63,241.656 L305.63,211.891 C305.63,210.953 305.161,210.484 304.224,210.484 C303.443,210.484 303.052,210.953 303.052,211.891 Z" style="stroke:#000000;stroke-opacity:1;stroke-width:3.5;stroke-linejoin:miter;stroke-miterlimit:2;stroke-linecap:round;fill:none;" class="nerhQHoe_2"></path>
        </g>
        <g id="Shape4">
            <desc shapeid="4" type="2" basicinfo-basictype="0" basicinfo-roundedrectradius="12" basicinfo-polygonsides="6" basicinfo-starpoints="5" bounding="rect(-62.1768,-57.5,124.354,115)" text="D" font-familyname="monster rock" font-pixelsize="120" font-bold="1" font-underline="0" font-alignment="1" strokestyle="0" markerstart="0" markerend="0" shadowenabled="0" shadowoffsetx="0" shadowoffsety="2" shadowblur="4" shadowopacity="160" blurenabled="0" blurradius="4" transform="matrix(1,0,0,1,419.821,229.594)" pers-center="0,0" pers-size="0,0" pers-start="0,0" pers-end="0,0" locked="0" mesh="" flag=""></desc>
            <path id="shapePath4" d="M384.438,191.969 L420.297,191.969 C429.555,191.969 437.915,195.563 445.376,202.75 C452.251,209.781 455.688,218.531 455.688,229 L455.688,233.453 C455.688,250.367 447.485,262.242 431.079,269.078 C427.055,270.172 423.93,270.719 421.704,270.719 L386.079,270.719 L385.844,270.484 L385.61,270.484 C406.782,234 418.032,214.391 419.36,211.656 L419.36,211.422 L418.657,210.484 L418.188,210.484 C417.172,210.484 416.157,211.813 415.141,214.469 L384.204,267.438 L383.969,267.438 L383.969,192.438 L384.438,191.969 Z" style="stroke:#0039ff;stroke-opacity:1;stroke-width:1.5;stroke-linejoin:miter;stroke-miterlimit:2;stroke-linecap:round;fill:none;" class="nerhQHoe_3"></path>
        </g>
        <g id="Shape5">
            <desc shapeid="5" type="0" basicinfo-basictype="2" basicinfo-roundedrectradius="12" basicinfo-polygonsides="6" basicinfo-starpoints="5" bounding="rect(-115.002,-23.0003,230.003,46.0007)" text="" font-familyname="monster rock" font-pixelsize="120" font-bold="1" font-underline="0" font-alignment="1" strokestyle="0" markerstart="0" markerend="0" shadowenabled="0" shadowoffsetx="0" shadowoffsety="2" shadowblur="4" shadowopacity="160" blurenabled="0" blurradius="4" transform="matrix(1,0,0,1,312.661,38.0943)" pers-center="0,0" pers-size="0,0" pers-start="0,0" pers-end="0,0" locked="0" mesh="" flag=""></desc>
            <path id="shapePath5" d="M197.659,27.094 C197.659,20.4666 203.032,15.094 209.659,15.094 L415.662,15.094 C422.29,15.094 427.662,20.4666 427.662,27.094 L427.662,49.0946 C427.662,55.722 422.29,61.0946 415.662,61.0946 L209.659,61.0946 C203.032,61.0946 197.659,55.722 197.659,49.0946 L197.659,27.094 Z" style="stroke:#ff5800;stroke-opacity:1;stroke-width:5.5;stroke-linejoin:miter;stroke-miterlimit:2;stroke-linecap:round;fill:none;" class="nerhQHoe_4"></path>
        </g>
        <g id="Shape6">
            <desc shapeid="6" type="0" basicinfo-basictype="2" basicinfo-roundedrectradius="12" basicinfo-polygonsides="6" basicinfo-starpoints="5" bounding="rect(-115.002,-23.0003,230.003,46.0007)" text="" font-familyname="monster rock" font-pixelsize="120" font-bold="1" font-underline="0" font-alignment="1" strokestyle="0" markerstart="0" markerend="0" shadowenabled="0" shadowoffsetx="0" shadowoffsety="2" shadowblur="4" shadowopacity="160" blurenabled="0" blurradius="4" transform="matrix(1,0,0,1,312.661,87.6888)" pers-center="0,0" pers-size="0,0" pers-start="0,0" pers-end="0,0" locked="0" mesh="" flag=""></desc>
            <path id="shapePath6" d="M197.659,76.6884 C197.659,70.061 203.032,64.6884 209.659,64.6884 L415.662,64.6884 C422.29,64.6884 427.662,70.061 427.662,76.6884 L427.662,98.6891 C427.662,105.317 422.29,110.689 415.662,110.689 L209.659,110.689 C203.032,110.689 197.659,105.317 197.659,98.6891 L197.659,76.6884 Z" style="stroke:#ece6eb;stroke-opacity:1;stroke-width:5;stroke-linejoin:miter;stroke-miterlimit:2;stroke-linecap:round;fill:none;" class="nerhQHoe_5"></path>
        </g>
        <g id="Shape7">
            <desc shapeid="7" type="0" basicinfo-basictype="2" basicinfo-roundedrectradius="12" basicinfo-polygonsides="6" basicinfo-starpoints="5" bounding="rect(-115.002,-23.0003,230.003,46.0007)" text="" font-familyname="monster rock" font-pixelsize="120" font-bold="1" font-underline="0" font-alignment="1" strokestyle="0" markerstart="0" markerend="0" shadowenabled="0" shadowoffsetx="0" shadowoffsety="2" shadowblur="4" shadowopacity="160" blurenabled="0" blurradius="4" transform="matrix(1,0,0,1,312.661,136.793)" pers-center="0,0" pers-size="0,0" pers-start="0,0" pers-end="0,0" locked="0" mesh="" flag=""></desc>
            <path id="shapePath7" d="M197.659,125.793 C197.659,119.165 203.032,113.793 209.659,113.793 L415.662,113.793 C422.29,113.793 427.662,119.165 427.662,125.793 L427.662,147.793 C427.662,154.421 422.29,159.793 415.662,159.793 L209.659,159.793 C203.032,159.793 197.659,154.421 197.659,147.793 L197.659,125.793 Z" style="stroke:#00ff2a;stroke-opacity:1;stroke-width:4.5;stroke-linejoin:miter;stroke-miterlimit:2;stroke-linecap:round;fill:none;" class="nerhQHoe_6"></path>
        </g>
        <g id="Shape8">
            <desc shapeid="8" type="0" basicinfo-basictype="4" basicinfo-roundedrectradius="12" basicinfo-polygonsides="6" basicinfo-starpoints="5" bounding="rect(-22.9877,-19.6606,45.9755,39.3211)" text="" font-familyname="monster rock" font-pixelsize="120" font-bold="1" font-underline="0" font-alignment="1" strokestyle="0" markerstart="0" markerend="0" shadowenabled="0" shadowoffsetx="0" shadowoffsety="2" shadowblur="4" shadowopacity="160" blurenabled="0" blurradius="4" transform="matrix(0.868421,0,0,1,312.661,87.6888)" pers-center="0,0" pers-size="0,0" pers-start="0,0" pers-end="0,0" locked="0" mesh="" flag=""></desc>
            <path id="shapePath8" d="M292.698,87.6888 C292.698,76.8305 301.635,68.0282 312.661,68.0282 C323.686,68.0282 332.624,76.8305 332.624,87.6888 C332.624,98.547 323.686,107.349 312.661,107.349 C301.635,107.349 292.698,98.547 292.698,87.6888 Z" style="stroke:#1e00ff;stroke-opacity:1;stroke-width:1.5;stroke-linejoin:miter;stroke-miterlimit:2;stroke-linecap:round;fill:none;" class="nerhQHoe_7"></path>
        </g>
        <g id="Shape9">
            <desc shapeid="9" type="0" basicinfo-basictype="4" basicinfo-roundedrectradius="12" basicinfo-polygonsides="6" basicinfo-starpoints="5" bounding="rect(-22.9877,-19.6606,45.9755,39.3211)" text="" font-familyname="monster rock" font-pixelsize="120" font-bold="1" font-underline="0" font-alignment="1" strokestyle="0" markerstart="0" markerend="0" shadowenabled="0" shadowoffsetx="0" shadowoffsety="2" shadowblur="4" shadowopacity="160" blurenabled="0" blurradius="4" transform="matrix(0.162525,0,0,0.18715,312.661,87.6888)" pers-center="0,0" pers-size="0,0" pers-start="0,0" pers-end="0,0" locked="0" mesh="" flag=""></desc>
            <path id="shapePath9" d="M308.925,87.6888 C308.925,85.6566 310.597,84.0093 312.661,84.0093 C314.724,84.0093 316.397,85.6566 316.397,87.6888 C316.397,89.7209 314.724,91.3682 312.661,91.3682 C310.597,91.3682 308.925,89.7209 308.925,87.6888 Z" style="stroke:#1e00ff;stroke-opacity:1;stroke-width:1.5;stroke-linejoin:miter;stroke-miterlimit:2;stroke-linecap:round;fill:none;" class="nerhQHoe_8"></path>
        </g>
        <g id="Shape10">
            <desc shapeid="10" type="0" basicinfo-basictype="0" basicinfo-roundedrectradius="12" basicinfo-polygonsides="6" basicinfo-starpoints="5" bounding="rect(0,0,0,0)" text="" font-familyname="monster rock" font-pixelsize="120" font-bold="1" font-underline="0" font-alignment="1" strokestyle="0" markerstart="0" markerend="0" shadowenabled="0" shadowoffsetx="0" shadowoffsety="2" shadowblur="4" shadowopacity="160" blurenabled="0" blurradius="4" transform="matrix(1,0,0,1,312.384,83.3978)" pers-center="0,0" pers-size="0,0" pers-start="0,0" pers-end="0,0" locked="0" mesh="" flag=""></desc>
            <path id="shapePath10" d="M312.384,83.3978 Z" style="stroke:#1e00ff;stroke-opacity:1;stroke-width:1.5;stroke-linejoin:miter;stroke-miterlimit:2;stroke-linecap:round;fill:none;" class="nerhQHoe_9"></path>
        </g>
        <g id="Shape11">
            <desc shapeid="11" type="0" basicinfo-basictype="0" basicinfo-roundedrectradius="12" basicinfo-polygonsides="6" basicinfo-starpoints="5" bounding="rect(0,-7.7056,0,15.4112)" text="" font-familyname="monster rock" font-pixelsize="120" font-bold="1" font-underline="0" font-alignment="1" strokestyle="0" markerstart="0" markerend="0" shadowenabled="0" shadowoffsetx="0" shadowoffsety="2" shadowblur="4" shadowopacity="160" blurenabled="0" blurradius="4" transform="matrix(0.113515,0,0,0.654867,312.384,75.4876)" pers-center="0,0" pers-size="0,0" pers-start="0,0" pers-end="0,0" locked="0" mesh="" flag=""></desc>
            <path id="shapePath11" d="M312.384,80.5337 C312.384,80.5337 312.384,70.6201 312.384,70.6201 C312.384,70.6201 312.384,70.4415 312.384,70.4415 C312.384,70.4415 312.384,80.5337 312.384,80.5337 Z" style="stroke:#1e00ff;stroke-opacity:1;stroke-width:1.5;stroke-linejoin:miter;stroke-miterlimit:2;stroke-linecap:round;fill:none;" class="nerhQHoe_10"></path>
        </g>
        <g id="Shape12">
            <desc shapeid="12" type="0" basicinfo-basictype="0" basicinfo-roundedrectradius="12" basicinfo-polygonsides="6" basicinfo-starpoints="5" bounding="rect(0,-7.7056,0,15.4112)" text="" font-familyname="monster rock" font-pixelsize="120" font-bold="1" font-underline="0" font-alignment="1" strokestyle="0" markerstart="0" markerend="0" shadowenabled="0" shadowoffsetx="0" shadowoffsety="2" shadowblur="4" shadowopacity="160" blurenabled="0" blurradius="4" transform="matrix(0.113515,0,0,0.654867,312.384,99.2863)" pers-center="0,0" pers-size="0,0" pers-start="0,0" pers-end="0,0" locked="0" mesh="" flag=""></desc>
            <path id="shapePath12" d="M312.384,104.332 C312.384,104.332 312.384,94.4188 312.384,94.4188 C312.384,94.4188 312.384,94.2402 312.384,94.2402 C312.384,94.2402 312.384,104.332 312.384,104.332 Z" style="stroke:#1e00ff;stroke-opacity:1;stroke-width:1.5;stroke-linejoin:miter;stroke-miterlimit:2;stroke-linecap:round;fill:none;" class="nerhQHoe_11"></path>
        </g>
        <g id="Shape13">
            <desc shapeid="13" type="0" basicinfo-basictype="0" basicinfo-roundedrectradius="12" basicinfo-polygonsides="6" basicinfo-starpoints="5" bounding="rect(0,-7.7056,0,15.4112)" text="" font-familyname="monster rock" font-pixelsize="120" font-bold="1" font-underline="0" font-alignment="1" strokestyle="0" markerstart="0" markerend="0" shadowenabled="0" shadowoffsetx="0" shadowoffsety="2" shadowblur="4" shadowopacity="160" blurenabled="0" blurradius="4" transform="matrix(-3.69269e-05,0.113515,-0.654867,-0.000213032,325.046,87.6871)" pers-center="0,0" pers-size="0,0" pers-start="0,0" pers-end="0,0" locked="0" mesh="" flag=""></desc>
            <path id="shapePath13" d="M320,87.6855 C320,87.6855 329.914,87.6887 329.914,87.6887 C329.914,87.6887 330.092,87.6888 330.092,87.6888 C330.092,87.6888 320,87.6855 320,87.6855 Z" style="stroke:#1e00ff;stroke-opacity:1;stroke-width:1.5;stroke-linejoin:miter;stroke-miterlimit:2;stroke-linecap:round;fill:none;" class="nerhQHoe_12"></path>
        </g>
        <g id="Shape14">
            <desc shapeid="14" type="0" basicinfo-basictype="0" basicinfo-roundedrectradius="12" basicinfo-polygonsides="6" basicinfo-starpoints="5" bounding="rect(0,-7.7056,0,15.4112)" text="" font-familyname="monster rock" font-pixelsize="120" font-bold="1" font-underline="0" font-alignment="1" strokestyle="0" markerstart="0" markerend="0" shadowenabled="0" shadowoffsetx="0" shadowoffsety="2" shadowblur="4" shadowopacity="160" blurenabled="0" blurradius="4" transform="matrix(-3.69269e-05,0.113515,-0.654867,-0.000213032,301.132,87.6904)" pers-center="0,0" pers-size="0,0" pers-start="0,0" pers-end="0,0" locked="0" mesh="" flag=""></desc>
            <path id="shapePath14" d="M296.086,87.6888 C296.086,87.6888 306,87.692 306,87.692 C306,87.692 306.178,87.692 306.178,87.692 C306.178,87.692 296.086,87.6888 296.086,87.6888 Z" style="stroke:#1e00ff;stroke-opacity:1;stroke-width:1.5;stroke-linejoin:miter;stroke-miterlimit:2;stroke-linecap:round;fill:none;" class="nerhQHoe_13"></path>
        </g>
    </g>
<style>.nerhQHoe_0{stroke-dasharray:635 637;stroke-dashoffset:636;animation:nerhQHoe_draw_0 34200ms ease-in-out 0ms infinite,nerhQHoe_fade 34200ms linear 0ms infinite;}.nerhQHoe_1{stroke-dasharray:240 242;stroke-dashoffset:241;animation:nerhQHoe_draw_1 34200ms ease-in-out 0ms infinite,nerhQHoe_fade 34200ms linear 0ms infinite;}.nerhQHoe_2{stroke-dasharray:362 364;stroke-dashoffset:363;animation:nerhQHoe_draw_2 34200ms ease-in-out 0ms infinite,nerhQHoe_fade 34200ms linear 0ms infinite;}.nerhQHoe_3{stroke-dasharray:402 404;stroke-dashoffset:403;animation:nerhQHoe_draw_3 34200ms ease-in-out 0ms infinite,nerhQHoe_fade 34200ms linear 0ms infinite;}.nerhQHoe_4{stroke-dasharray:532 534;stroke-dashoffset:533;animation:nerhQHoe_draw_4 34200ms ease-in-out 0ms infinite,nerhQHoe_fade 34200ms linear 0ms infinite;}.nerhQHoe_5{stroke-dasharray:532 534;stroke-dashoffset:533;animation:nerhQHoe_draw_5 34200ms ease-in-out 0ms infinite,nerhQHoe_fade 34200ms linear 0ms infinite;}.nerhQHoe_6{stroke-dasharray:532 534;stroke-dashoffset:533;animation:nerhQHoe_draw_6 34200ms ease-in-out 0ms infinite,nerhQHoe_fade 34200ms linear 0ms infinite;}.nerhQHoe_7{stroke-dasharray:125 127;stroke-dashoffset:126;animation:nerhQHoe_draw_7 34200ms ease-in-out 0ms infinite,nerhQHoe_fade 34200ms linear 0ms infinite;}.nerhQHoe_8{stroke-dasharray:24 26;stroke-dashoffset:25;animation:nerhQHoe_draw_8 34200ms ease-in-out 0ms infinite,nerhQHoe_fade 34200ms linear 0ms infinite;}.nerhQHoe_9{stroke-dasharray:0 2;stroke-dashoffset:1;animation:nerhQHoe_draw_9 34200ms ease-in-out 0ms infinite,nerhQHoe_fade 34200ms linear 0ms infinite;}.nerhQHoe_10{stroke-dasharray:21 23;stroke-dashoffset:22;animation:nerhQHoe_draw_10 34200ms ease-in-out 0ms infinite,nerhQHoe_fade 34200ms linear 0ms infinite;}.nerhQHoe_11{stroke-dasharray:21 23;stroke-dashoffset:22;animation:nerhQHoe_draw_11 34200ms ease-in-out 0ms infinite,nerhQHoe_fade 34200ms linear 0ms infinite;}.nerhQHoe_12{stroke-dasharray:21 23;stroke-dashoffset:22;animation:nerhQHoe_draw_12 34200ms ease-in-out 0ms infinite,nerhQHoe_fade 34200ms linear 0ms infinite;}.nerhQHoe_13{stroke-dasharray:21 23;stroke-dashoffset:22;animation:nerhQHoe_draw_13 34200ms ease-in-out 0ms infinite,nerhQHoe_fade 34200ms linear 0ms infinite;}@keyframes nerhQHoe_draw{100%{stroke-dashoffset:0;}}@keyframes nerhQHoe_fade{0%{stroke-opacity:1;}98.83040935672514%{stroke-opacity:1;}100%{stroke-opacity:0;}}@keyframes nerhQHoe_draw_0{2.3391812865497075%{stroke-dashoffset: 636}18.361431052262095%{ stroke-dashoffset: 0;}100%{ stroke-dashoffset: 0;}}@keyframes nerhQHoe_draw_1{18.361431052262095%{stroke-dashoffset: 241}24.43275525593613%{ stroke-dashoffset: 0;}100%{ stroke-dashoffset: 0;}}@keyframes nerhQHoe_draw_2{24.432755255936126%{stroke-dashoffset: 363}33.57752988636631%{ stroke-dashoffset: 0;}100%{ stroke-dashoffset: 0;}}@keyframes nerhQHoe_draw_3{33.577529886366314%{stroke-dashoffset: 403}43.72999318130671%{ stroke-dashoffset: 0;}100%{ stroke-dashoffset: 0;}}@keyframes nerhQHoe_draw_4{43.7299931813067%{stroke-dashoffset: 533}57.157444635905286%{ stroke-dashoffset: 0;}100%{ stroke-dashoffset: 0;}}@keyframes nerhQHoe_draw_5{57.1574446359053%{stroke-dashoffset: 533}70.58489609050388%{ stroke-dashoffset: 0;}100%{ stroke-dashoffset: 0;}}@keyframes nerhQHoe_draw_6{70.58489609050386%{stroke-dashoffset: 533}84.01234754510246%{ stroke-dashoffset: 0;}100%{ stroke-dashoffset: 0;}}@keyframes nerhQHoe_draw_7{84.01234754510246%{stroke-dashoffset: 126}87.18656683830963%{ stroke-dashoffset: 0;}100%{ stroke-dashoffset: 0;}}@keyframes nerhQHoe_draw_8{87.18656683830963%{stroke-dashoffset: 25}87.81637225362851%{ stroke-dashoffset: 0;}100%{ stroke-dashoffset: 0;}}@keyframes nerhQHoe_draw_9{87.81637225362851%{stroke-dashoffset: 1}87.84156447024128%{ stroke-dashoffset: 0;}100%{ stroke-dashoffset: 0;}}@keyframes nerhQHoe_draw_10{87.84156447024128%{stroke-dashoffset: 22}88.3957932357219%{ stroke-dashoffset: 0;}100%{ stroke-dashoffset: 0;}}@keyframes nerhQHoe_draw_11{88.3957932357219%{stroke-dashoffset: 22}88.95002200120251%{ stroke-dashoffset: 0;}100%{ stroke-dashoffset: 0;}}@keyframes nerhQHoe_draw_12{88.95002200120251%{stroke-dashoffset: 22}89.50425076668313%{ stroke-dashoffset: 0;}100%{ stroke-dashoffset: 0;}}@keyframes nerhQHoe_draw_13{89.50425076668313%{stroke-dashoffset: 22}90.05847953216373%{ stroke-dashoffset: 0;}100%{ stroke-dashoffset: 0;}}</style></svg>
