<!--?xml version="1.0"?-->
<svg version="1.1" xmlns="http://www.w3.org/2000/svg" xmlns:xlink="http://www.w3.org/1999/xlink" width="600" height="500">
    <desc ivinci="yes" version="4.6" gridstep="20" showgrid="no" snaptogrid="no" codeplatform="0"></desc>
    <g id="Layer1" name="Layer 1" opacity="1">
        <g id="Shape1">
            <desc shapeid="1" type="0" basicinfo-basictype="0" basicinfo-roundedrectradius="12" basicinfo-polygonsides="6" basicinfo-starpoints="5" bounding="rect(-4.56251,-3.79291,9.12502,7.58582)" text="" font-familyname="" font-pixelsize="20" font-bold="0" font-underline="0" font-alignment="1" strokestyle="0" markerstart="0" markerend="0" shadowenabled="0" shadowoffsetx="0" shadowoffsety="2" shadowblur="4" shadowopacity="160" blurenabled="0" blurradius="4" transform="matrix(10.2247,0,0,14.2042,200.979,408.594)" pers-center="0,0" pers-size="0,0" pers-start="0,0" pers-end="0,0" locked="0" mesh="" flag=""></desc>
            <path id="shapePath1" d="M179.251,461.865 C165.783,458.924 157.531,448.967 154.884,432.464 C154.384,429.345 154.328,425.76 154.328,396.595 L154.328,364.192 L155.085,361.865 C155.92,359.3 157.789,356.688 159.501,355.694 C161.06,354.789 166.323,354.435 169.13,355.045 C172.997,355.886 176.035,358.545 177.745,362.588 L178.612,364.636 L178.772,393.71 C178.95,426.229 178.804,424.256 181.311,428.034 C182.031,429.119 183.372,430.48 184.291,431.057 L185.961,432.106 L200.978,432.106 C215.644,432.106 216.031,432.083 217.473,431.157 C219.587,429.799 221.394,427.353 222.268,424.667 L223.025,422.34 L223.185,392.822 L223.345,363.304 L224.296,360.92 C225.974,356.709 228.076,355.18 232.717,354.793 C239.723,354.21 244.547,357.061 246.897,363.175 L247.629,365.079 L247.629,408.802 L247.629,452.524 L246.73,455.067 C246.235,456.466 245.305,458.212 244.663,458.948 C242.67,461.23 241.151,461.663 235.618,461.525 L230.694,461.401 L227.603,455.632 C224.045,448.99 223.38,448.351 220.789,449.09 C219.91,449.341 216.316,451.446 212.801,453.767 C201.748,461.067 197.509,462.539 187.742,462.467 C184.478,462.443 180.657,462.172 179.251,461.865 L179.251,461.865 Z" style="stroke:#faf600;stroke-opacity:1;stroke-width:9.8;stroke-linejoin:miter;stroke-miterlimit:2;stroke-linecap:butt;fill:none;" class="RngnvnNh_0"></path>
        </g>
        <g id="Shape2">
            <desc shapeid="2" type="0" basicinfo-basictype="0" basicinfo-roundedrectradius="12" basicinfo-polygonsides="6" basicinfo-starpoints="5" bounding="rect(-4.29386,-5.00401,8.58771,10.008)" text="" font-familyname="" font-pixelsize="20" font-bold="0" font-underline="0" font-alignment="1" strokestyle="0" markerstart="0" markerend="0" shadowenabled="0" shadowoffsetx="0" shadowoffsety="2" shadowblur="4" shadowopacity="160" blurenabled="0" blurradius="4" transform="matrix(10.2247,0,0,14.2042,94.2537,390.438)" pers-center="0,0" pers-size="0,0" pers-start="0,0" pers-end="0,0" locked="0" mesh="" flag=""></desc>
            <path id="shapePath2" d="M57.5806,460.868 C55.7143,459.994 53.4181,457.27 52.4673,454.8 C51.7982,453.063 51.7617,452.44 51.7617,442.759 L51.7617,432.549 L79.7198,432.327 C110.446,432.084 108.565,432.259 111.008,429.403 C112.998,427.077 113.27,425.649 113.263,417.586 C113.255,409.328 112.921,407.612 110.909,405.48 C108.641,403.077 108.598,403.072 91.7019,403.047 C72.1983,403.019 69.5987,402.659 64.1672,399.237 C56.6694,394.515 51.855,385.494 50.6386,373.889 C50.0815,368.573 50.3827,352.208 51.1072,348.434 C53.3556,336.722 59.7595,326.841 68.1186,322.184 C73.2427,319.33 72.9067,319.359 100.009,319.359 L124.613,319.359 L126.36,320.691 C128.505,322.326 129.767,324.951 130.209,328.703 C130.671,332.622 130.618,347.681 130.14,348.345 C129.849,348.75 124.104,348.878 106.234,348.878 C80.2207,348.878 80.9336,348.805 78.0838,351.728 C77.1919,352.642 76.3289,354.041 75.9033,355.263 C75.2589,357.112 75.2077,357.826 75.3025,363.658 C75.4007,369.72 75.4482,370.119 76.2685,371.839 C76.8623,373.084 77.7084,374.041 78.9845,374.912 L80.838,376.176 L99.6898,376.434 C117.785,376.681 118.651,376.731 121.258,377.673 C130.452,380.994 135.967,388.709 137.716,400.698 C138.156,403.72 138.221,406.477 138.109,417.542 C137.986,429.825 137.924,430.997 137.248,433.881 C134.175,446.991 127.311,456.001 117.06,460.378 L114.707,461.383 L86.909,461.483 C62.0575,461.573 58.9484,461.508 57.5805,460.868 L57.5806,460.868 Z" style="stroke:#22fe03;stroke-opacity:1;stroke-width:9.8;stroke-linejoin:miter;stroke-miterlimit:2;stroke-linecap:butt;fill:none;" class="RngnvnNh_1"></path>
        </g>
        <g id="Shape3">
            <desc shapeid="3" type="0" basicinfo-basictype="0" basicinfo-roundedrectradius="12" basicinfo-polygonsides="6" basicinfo-starpoints="5" bounding="rect(-4.30991,-5.00912,8.61983,10.0182)" text="" font-familyname="" font-pixelsize="20" font-bold="0" font-underline="0" font-alignment="1" strokestyle="0" markerstart="0" markerend="0" shadowenabled="0" shadowoffsetx="0" shadowoffsety="2" shadowblur="4" shadowopacity="160" blurenabled="0" blurradius="4" transform="matrix(10.2247,0,0,14.2042,308.169,390.336)" pers-center="0,0" pers-size="0,0" pers-start="0,0" pers-end="0,0" locked="0" mesh="" flag=""></desc>
            <path id="shapePath3" d="M272.072,461.216 C270.397,460.49 268.617,458.951 267.608,457.354 C265.737,454.393 265.58,453.399 265.428,443.546 C265.351,438.609 265.379,434.07 265.489,433.46 L265.689,432.351 L293.564,432.229 C324.389,432.092 322.391,432.286 324.912,429.21 C326.846,426.852 327.12,425.697 327.282,419.232 C327.516,409.896 326.68,406.676 323.385,404.226 C322.096,403.268 321.812,403.25 304.184,403 C284.859,402.726 284.376,402.67 279.548,400.145 C272.478,396.449 266.919,387.93 265.004,377.858 C264.162,373.425 263.815,360.084 264.372,353.518 C265.083,345.141 267.427,338.151 271.548,332.125 C275.502,326.342 280.252,322.443 285.845,320.39 C288.477,319.424 288.972,319.403 312.172,319.236 C329.371,319.112 336.407,319.209 337.983,319.589 C341.946,320.545 344.652,324.1 345.244,329.126 C345.708,333.058 345.657,347.68 345.178,348.346 C344.886,348.751 338.994,348.878 320.611,348.878 C292.881,348.878 294.267,348.7 291.351,352.642 C289.219,355.523 288.893,357.175 289.071,364.192 C289.222,370.166 289.553,371.502 291.408,373.626 C293.575,376.108 293.427,376.09 313.609,376.419 C323.89,376.587 332.733,376.871 333.26,377.05 C339.389,379.131 342.917,381.586 346.088,385.977 C347.843,388.406 348.67,390.004 349.654,392.867 C351.523,398.305 351.98,401.783 352.183,412.132 C352.4,423.162 351.962,430.033 350.714,435.196 C347.839,447.08 340.255,456.784 331.023,460.391 C328.47,461.389 328.434,461.39 300.669,461.476 C285.379,461.523 272.511,461.406 272.071,461.216 L272.072,461.216 Z" style="stroke:#ffff10;stroke-opacity:1;stroke-width:9.8;stroke-linejoin:miter;stroke-miterlimit:2;stroke-linecap:butt;fill:none;" class="RngnvnNh_2"></path>
        </g>
        <g id="Shape4">
            <desc shapeid="4" type="0" basicinfo-basictype="0" basicinfo-roundedrectradius="12" basicinfo-polygonsides="6" basicinfo-starpoints="5" bounding="rect(-4.60852,-5.01301,9.21705,10.026)" text="" font-familyname="" font-pixelsize="20" font-bold="0" font-underline="0" font-alignment="1" strokestyle="0" markerstart="0" markerend="0" shadowenabled="0" shadowoffsetx="0" shadowoffsety="2" shadowblur="4" shadowopacity="160" blurenabled="0" blurradius="4" transform="matrix(10.2247,0,0,14.2042,415.723,390.394)" pers-center="0,0" pers-size="0,0" pers-start="0,0" pers-end="0,0" locked="0" mesh="" flag=""></desc>
            <path id="shapePath4" d="M390.934,460.746 C381.329,457.864 372.91,447.682 370.022,435.454 C368.558,429.254 368.533,428.412 368.64,388.605 C368.741,350.937 368.743,350.87 369.46,347.628 C372.789,332.588 381.629,322.113 392.983,319.755 C395.663,319.198 399.724,319.112 417.292,319.241 L438.383,319.396 L441.441,320.552 C446.827,322.59 451.263,326.204 455.034,331.627 C459.099,337.475 461.369,343.599 462.341,351.34 C462.909,355.865 463.036,382.355 462.512,386.807 C461.655,394.073 457.345,400.38 451.845,402.414 C450.518,402.905 444.831,403.022 422.047,403.026 C397.812,403.03 393.834,403.121 393.503,403.676 C393.22,404.15 393.146,406.959 393.224,414.232 C393.327,423.828 393.356,424.213 394.143,426.349 C395.123,429.01 397.236,431.149 399.572,431.845 C400.652,432.167 408.84,432.328 424.174,432.328 L447.158,432.328 L447.36,433.448 C447.472,434.064 447.506,438.609 447.438,443.546 C447.323,451.79 447.253,452.694 446.584,454.604 C445.624,457.343 443.841,459.522 441.609,460.682 C439.822,461.611 439.481,461.623 416.724,461.592 C395.588,461.564 393.422,461.493 390.935,460.746 L390.934,460.746 Z" style="stroke:#ff9000;stroke-opacity:1;stroke-width:9.8;stroke-linejoin:miter;stroke-miterlimit:2;stroke-linecap:butt;fill:none;" class="RngnvnNh_3"></path>
        </g>
        <g id="Shape5">
            <desc shapeid="5" type="0" basicinfo-basictype="0" basicinfo-roundedrectradius="12" basicinfo-polygonsides="6" basicinfo-starpoints="5" bounding="rect(-2.18462,-0.966257,4.36923,1.93252)" text="" font-familyname="" font-pixelsize="20" font-bold="0" font-underline="0" font-alignment="1" strokestyle="0" markerstart="0" markerend="0" shadowenabled="0" shadowoffsetx="0" shadowoffsety="2" shadowblur="4" shadowopacity="160" blurenabled="0" blurradius="4" transform="matrix(10.2247,0,0,14.2042,415.53,362.602)" pers-center="0,0" pers-size="0,0" pers-start="0,0" pers-end="0,0" locked="0" mesh="" flag=""></desc>
            <path id="shapePath5" d="M437.831,366.656 C437.916,357.194 437.912,357.121 437.087,354.78 C436.218,352.311 434.565,350.368 432.504,349.392 C431.739,349.03 426.773,348.878 415.69,348.878 C398.65,348.878 398.459,348.902 396.155,351.343 C395.576,351.957 394.704,353.401 394.216,354.552 C393.337,356.631 393.33,356.71 393.223,365.878 C393.163,370.956 393.195,375.402 393.293,375.757 C393.448,376.317 396.461,376.389 415.608,376.29 L437.744,376.177 L437.831,366.656 L437.831,366.656 Z" style="stroke:#020202;stroke-opacity:1;stroke-width:9.8;stroke-linejoin:miter;stroke-miterlimit:2;stroke-linecap:butt;fill:none;" class="RngnvnNh_4"></path>
        </g>
        <g id="Shape6">
            <desc shapeid="6" type="0" basicinfo-basictype="0" basicinfo-roundedrectradius="12" basicinfo-polygonsides="6" basicinfo-starpoints="5" bounding="rect(-21.0872,-11.1863,42.1743,22.3726)" text="" font-familyname="" font-pixelsize="20" font-bold="0" font-underline="0" font-alignment="1" strokestyle="0" markerstart="0" markerend="0" shadowenabled="0" shadowoffsetx="0" shadowoffsety="2" shadowblur="4" shadowopacity="160" blurenabled="0" blurradius="4" transform="matrix(10.2247,0,0,14.2042,334.04,196.423)" pers-center="0,0" pers-size="0,0" pers-start="0,0" pers-end="0,0" locked="0" mesh="" flag=""></desc>
            <path id="shapePath6" d="M192.11,355.086 C158.783,350.924 131.702,321.009 121.755,277.368 C119.176,266.053 118.205,255.5 118.473,241.68 C118.899,219.701 122.188,202.545 129.909,182.045 C143.86,145 166.209,114.328 198.422,88.0166 C218.347,71.7426 235.402,60.8958 254.818,52.1493 C271.712,44.5389 287.963,40.1312 306.74,38.0665 C313.38,37.3365 340.108,37.3572 348.438,38.0989 C370.641,40.076 394.434,45.7846 417.931,54.772 C422.543,56.5363 423.206,56.6542 423.206,55.7104 C423.206,53.7699 424.713,49.7454 426.312,47.4162 C428.283,44.5464 430.28,43.1617 433.019,42.7657 C437.53,42.1134 471.283,51.393 488.728,58.0818 C505.12,64.3663 517.791,71.291 524.974,77.8899 C528.086,80.7491 533.076,87.79 535.145,92.2411 C537.057,96.3542 539.954,104.367 541.894,110.908 C543.474,116.235 547.5,132.422 547.5,133.447 C547.5,134.468 542.707,141.08 540.001,143.794 C536.52,147.284 530.637,152.001 527.53,153.792 C520.315,157.951 510.22,160.017 502.447,158.925 C492.101,157.472 481.883,153.212 470.974,145.803 C465.226,141.899 457.562,135.144 453.771,130.642 C448.458,124.332 446.651,123.15 442.835,123.487 C439.02,123.823 436.146,126.626 434.503,131.613 C433.436,134.851 433.265,137.338 433.881,140.679 C434.583,144.484 435.882,146.835 439.838,151.462 C456.738,171.231 480.569,185.017 501.857,187.341 C511.208,188.362 522.85,186.257 531.741,181.938 C536.753,179.503 539.977,177.261 548.198,170.494 C548.67,170.106 549.146,169.913 549.256,170.066 C549.366,170.219 549.533,171.413 549.628,172.721 C549.874,176.142 548.012,185.898 545.827,192.631 C543.235,200.62 538.094,205.879 525.048,213.889 C519.579,217.247 515.665,219.266 510.915,221.18 C499.657,225.714 485.935,228.58 471.294,229.456 C463.1,229.946 458.037,229.601 445.093,227.673 C434.212,226.052 427.277,225.595 424.75,226.331 C421.59,227.251 420.737,229.321 420.436,236.798 C420.31,239.927 420.414,242.48 420.786,245.453 C422.205,256.775 427.381,272.24 434.38,286.068 C437.185,291.609 437.591,296.593 435.687,302.098 C433.526,308.346 428.688,311.744 423.959,310.335 C422.464,309.89 391.357,290.146 388.489,287.822 C386.702,286.375 380.509,277.509 373,265.65 C366.236,254.967 363.705,251.307 360.634,247.765 C354.408,240.585 347.162,235.712 339.6,233.618 C335.756,232.553 327.995,232.582 323.868,233.676 C318.326,235.145 313.561,239.425 311.669,244.631 C309.977,249.288 309.416,253.564 309.227,263.257 C309.094,270.093 309.183,273.428 309.643,278.793 C310.439,288.061 310.393,289.91 309.286,293.161 C307.707,297.798 304.579,301.255 301.268,302.023 C298.5,302.665 296.384,301.64 285.978,294.613 C280.526,290.931 275.814,287.622 275.507,287.258 C275.108,286.786 274.948,285.939 274.948,284.307 C274.948,281.53 274.197,273.457 273.542,269.201 C269.556,243.271 257.401,218.615 240.643,202.469 C234.664,196.708 228.029,192.937 220.907,191.251 C215.699,190.018 206.985,190.222 201.702,191.7 C180.249,197.704 165.374,215.695 161.664,240.126 C160.926,244.989 160.724,252.163 161.182,257.225 C162.174,268.172 164.939,277.005 169.977,285.32 C178.001,298.564 190.1,305.648 201.899,304.009 C211.288,302.705 218.349,297.157 222.994,287.436 C225.537,282.114 227.29,273.832 226.868,269.137 C226.045,259.993 219.327,254.25 213.187,257.441 C209.783,259.21 207.544,262.98 206.745,268.289 C206.499,269.919 206.07,271.737 205.791,272.329 C204.246,275.604 198.596,276.78 193.884,274.807 C190.031,273.194 185.105,267.444 183.286,262.436 C178.213,248.467 183.05,232.442 194.652,224.786 C204.33,218.4 213.725,216.943 221.635,220.602 C231.005,224.936 242.84,240.696 248.546,256.435 C249.15,258.103 250.701,264.054 251.991,269.66 L254.338,279.854 L254.338,289.397 C254.339,297.767 254.247,299.507 253.596,303.548 C251.499,316.558 246.35,330.355 241.558,335.803 C232.768,345.797 221.788,352.164 209.448,354.425 C204.999,355.241 196.073,355.58 192.11,355.085 L192.11,355.086 Z" style="stroke:#1f00ff;stroke-opacity:1;stroke-width:9.8;stroke-linejoin:miter;stroke-miterlimit:2;stroke-linecap:butt;fill:none;" class="RngnvnNh_5"></path>
        </g>
        <g id="Shape7">
            <desc shapeid="7" type="0" basicinfo-basictype="0" basicinfo-roundedrectradius="12" basicinfo-polygonsides="6" basicinfo-starpoints="5" bounding="rect(-1.67142,-1.66814,3.34284,3.33627)" text="" font-familyname="" font-pixelsize="20" font-bold="0" font-underline="0" font-alignment="1" strokestyle="0" markerstart="0" markerend="0" shadowenabled="0" shadowoffsetx="0" shadowoffsety="2" shadowblur="4" shadowopacity="160" blurenabled="0" blurradius="4" transform="matrix(10.2247,0,0,14.2042,497.462,124.442)" pers-center="0,0" pers-size="0,0" pers-start="0,0" pers-end="0,0" locked="0" mesh="" flag=""></desc>
            <path id="shapePath7" d="M500.941,147.589 C507.572,145.638 512.713,138.495 514.118,129.284 C514.699,125.476 514.697,123.502 514.106,119.613 C512.424,108.53 505.539,100.748 497.416,100.748 C492.624,100.748 488.691,102.991 485.353,107.628 C477.941,117.925 478.932,134.856 487.457,143.575 C491.426,147.635 496.08,149.02 500.941,147.589 L500.941,147.589 Z" style="stroke:#020202;stroke-opacity:1;stroke-width:9.8;stroke-linejoin:miter;stroke-miterlimit:2;stroke-linecap:butt;fill:none;" class="RngnvnNh_6"></path>
        </g>
        <g id="Shape8">
            <desc shapeid="8" type="0" basicinfo-basictype="0" basicinfo-roundedrectradius="12" basicinfo-polygonsides="6" basicinfo-starpoints="5" bounding="rect(-0.730267,-0.480012,1.46053,0.960024)" text="" font-familyname="" font-pixelsize="20" font-bold="0" font-underline="0" font-alignment="1" strokestyle="0" markerstart="0" markerend="0" shadowenabled="0" shadowoffsetx="0" shadowoffsety="2" shadowblur="4" shadowopacity="160" blurenabled="0" blurradius="4" transform="matrix(10.2247,0,0,14.2042,500.808,119.595)" pers-center="0,0" pers-size="0,0" pers-start="0,0" pers-end="0,0" locked="0" mesh="" flag=""></desc>
            <path id="shapePath8" d="M497.972,126.104 C496.519,125.444 495.272,124.373 494.299,122.952 C493.547,121.854 493.341,121.152 493.341,119.695 C493.341,115.727 495.994,113.09 500.269,112.805 C503.294,112.603 505.438,113.494 506.87,115.546 C509.245,118.949 508.565,122.829 505.163,125.281 C503.773,126.283 499.453,126.777 497.972,126.104 L497.972,126.104 Z" style="stroke:#020202;stroke-opacity:1;stroke-width:9.8;stroke-linejoin:miter;stroke-miterlimit:2;stroke-linecap:butt;fill:none;" class="RngnvnNh_7"></path>
        </g>
    </g>
<style>.RngnvnNh_0{stroke-dasharray:520 522;stroke-dashoffset:521;animation:RngnvnNh_draw_0 7200ms linear 0ms infinite,RngnvnNh_fade 7200ms linear 0ms infinite;}.RngnvnNh_1{stroke-dasharray:618 620;stroke-dashoffset:619;animation:RngnvnNh_draw_1 7200ms linear 0ms infinite,RngnvnNh_fade 7200ms linear 0ms infinite;}.RngnvnNh_2{stroke-dasharray:619 621;stroke-dashoffset:620;animation:RngnvnNh_draw_2 7200ms linear 0ms infinite,RngnvnNh_fade 7200ms linear 0ms infinite;}.RngnvnNh_3{stroke-dasharray:522 524;stroke-dashoffset:523;animation:RngnvnNh_draw_3 7200ms linear 0ms infinite,RngnvnNh_fade 7200ms linear 0ms infinite;}.RngnvnNh_4{stroke-dasharray:136 138;stroke-dashoffset:137;animation:RngnvnNh_draw_4 7200ms linear 0ms infinite,RngnvnNh_fade 7200ms linear 0ms infinite;}.RngnvnNh_5{stroke-dasharray:2183 2185;stroke-dashoffset:2184;animation:RngnvnNh_draw_5 7200ms linear 0ms infinite,RngnvnNh_fade 7200ms linear 0ms infinite;}.RngnvnNh_6{stroke-dasharray:129 131;stroke-dashoffset:130;animation:RngnvnNh_draw_6 7200ms linear 0ms infinite,RngnvnNh_fade 7200ms linear 0ms infinite;}.RngnvnNh_7{stroke-dasharray:46 48;stroke-dashoffset:47;animation:RngnvnNh_draw_7 7200ms linear 0ms infinite,RngnvnNh_fade 7200ms linear 0ms infinite;}@keyframes RngnvnNh_draw{100%{stroke-dashoffset:0;}}@keyframes RngnvnNh_fade{0%{stroke-opacity:1;}94.44444444444444%{stroke-opacity:1;}100%{stroke-opacity:0;}}@keyframes RngnvnNh_draw_0{11.11111111111111%{stroke-dashoffset: 521}15.651653535987355%{ stroke-dashoffset: 0;}100%{ stroke-dashoffset: 0;}}@keyframes RngnvnNh_draw_1{15.651653535987355%{stroke-dashoffset: 619}21.04627111947756%{ stroke-dashoffset: 0;}100%{ stroke-dashoffset: 0;}}@keyframes RngnvnNh_draw_2{21.04627111947756%{stroke-dashoffset: 620}26.44960375560668%{ stroke-dashoffset: 0;}100%{ stroke-dashoffset: 0;}}@keyframes RngnvnNh_draw_3{26.449603755606688%{stroke-dashoffset: 523}31.00757628576077%{ stroke-dashoffset: 0;}100%{ stroke-dashoffset: 0;}}@keyframes RngnvnNh_draw_4{31.00757628576077%{stroke-dashoffset: 137}32.201538497292525%{ stroke-dashoffset: 0;}100%{ stroke-dashoffset: 0;}}@keyframes RngnvnNh_draw_5{32.20153849729252%{stroke-dashoffset: 2184}51.2352134606893%{ stroke-dashoffset: 0;}100%{ stroke-dashoffset: 0;}}@keyframes RngnvnNh_draw_6{51.2352134606893%{stroke-dashoffset: 130}52.36817030374863%{ stroke-dashoffset: 0;}100%{ stroke-dashoffset: 0;}}@keyframes RngnvnNh_draw_7{52.36817030374863%{stroke-dashoffset: 47}52.77777777777778%{ stroke-dashoffset: 0;}100%{ stroke-dashoffset: 0;}}</style></svg>
