<!--?xml version="1.0"?-->
<svg version="1.1" xmlns="http://www.w3.org/2000/svg" xmlns:xlink="http://www.w3.org/1999/xlink" width="640" height="480">
    <desc ivinci="yes" version="4.6" gridstep="20" showgrid="no" snaptogrid="no" codeplatform="0"></desc>
    <g id="Layer1" name="Layer 1" opacity="1">
        <g id="Shape1">
            <desc shapeid="1" type="0" basicinfo-basictype="1" basicinfo-roundedrectradius="12" basicinfo-polygonsides="6" basicinfo-starpoints="5" bounding="rect(-316.897,-234.949,633.794,469.897)" text="" font-familyname="Tsukushi A Round Gothic" font-pixelsize="185" font-bold="1" font-underline="0" font-alignment="1" strokestyle="0" markerstart="0" markerend="0" shadowenabled="0" shadowoffsetx="0" shadowoffsety="2" shadowblur="4" shadowopacity="160" blurenabled="0" blurradius="4" transform="matrix(1.01552,0,0,1.0215,318.185,240)" pers-center="0,0" pers-size="0,0" pers-start="0,0" pers-end="0,0" locked="0" mesh="" flag=""></desc>
            <path id="shapePath1" d="M-3.63055,3.05176e-05 L640,3.05176e-05 L640,480 L-3.63055,480 L-3.63055,3.05176e-05 Z" style="stroke:none;fill-rule:evenodd;fill:url(#linearGradientFill1);fill-opacity:1;" class="KSejXhNq_0"></path><defs><linearGradient id="linearGradientFill1" gradientUnits="userSpaceOnUse" x1="292.903" y1="240" x2="362.762" y2="331.283"><stop offset="0.109022" stop-color="#000000" stop-opacity="1"></stop><stop offset="0.120791" stop-color="#2677ff" stop-opacity="1"></stop></linearGradient></defs>
        </g>
        <g id="Shape2">
            <desc shapeid="2" type="2" basicinfo-basictype="0" basicinfo-roundedrectradius="12" basicinfo-polygonsides="6" basicinfo-starpoints="5" bounding="rect(-226.132,-138.961,452.264,277.921)" text="THE CODE" font-familyname="Tsukushi A Round Gothic" font-pixelsize="185" font-bold="1" font-underline="0" font-alignment="1" strokestyle="0" markerstart="0" markerend="0" shadowenabled="0" shadowoffsetx="0" shadowoffsety="2" shadowblur="4" shadowopacity="160" blurenabled="0" blurradius="4" transform="matrix(1,0,0,1,304.967,237.671)" pers-center="0,0" pers-size="0,0" pers-start="0,0" pers-end="0,0" locked="0" mesh="" flag=""></desc>
            <path id="shapePath2" d="M167.245,161.745 C167.245,168.035 172.795,171.18 178.345,171.18 C184.08,171.18 189.815,168.035 189.445,161.56 C188.89,147.87 188.52,125.3 188.52,103.1 C188.52,84.9698 188.705,67.0247 189.075,54.4447 C189.075,50.7448 189.075,50.7448 207.39,50.7448 C211.83,50.7448 217.195,50.7448 223.485,51.1148 C223.67,51.1148 223.855,51.1148 224.225,51.1148 C230.145,51.1148 233.105,46.3047 233.105,41.3098 C233.105,37.2398 230.7,31.1348 223.485,31.3197 C212.94,31.5048 197.215,31.6898 181.49,31.6898 C162.25,31.6898 142.64,31.5048 131.54,31.3197 C131.355,31.3197 131.355,31.3197 131.17,31.3197 C124.325,31.3197 120.995,36.1298 120.995,41.1248 C120.995,46.1198 124.51,51.1148 131.54,51.1148 C140.235,51.1148 148.93,50.7448 155.96,50.7448 C166.875,50.7448 167.43,50.7448 167.43,54.4447 C167.8,64.2498 167.8,79.6048 167.8,95.8848 C167.8,120.305 167.615,147.13 167.245,161.56 L167.245,161.745 M366.675,162.115 C366.305,146.575 366.12,119.935 366.12,94.0348 C366.12,73.8698 366.305,54.0748 366.675,40.5697 C366.675,40.3848 366.675,40.3848 366.675,40.1998 C366.675,33.9098 361.31,30.5798 355.945,30.5798 C350.025,30.5798 345.03,34.4648 345.215,40.5697 C345.4,47.9698 345.585,55.3698 345.585,62.0298 C345.585,72.2048 345.4,80.5298 345.215,84.9698 C345.215,87.0048 344.475,88.2998 342.255,88.2998 C335.595,88.4848 321.72,88.4848 308.215,88.4848 C294.895,88.4848 282.13,88.4848 277.505,88.2998 C276.025,88.2998 274.545,87.5598 274.545,84.7848 C274.36,80.1598 274.175,71.8348 274.175,61.8448 C274.175,55.3698 274.36,47.9698 274.545,40.5697 C274.545,40.3848 274.545,40.3848 274.545,40.1998 C274.545,33.9098 269.18,30.5798 263.815,30.5798 C257.34,30.5798 253.085,34.6497 253.27,40.5697 C253.64,54.6298 253.825,74.2398 253.825,94.9598 C253.825,118.085 253.64,142.505 253.27,162.115 L253.27,162.3 C253.27,168.22 258.635,171.18 264,171.18 C269.365,171.18 274.545,168.405 274.545,162.485 C274.545,162.3 274.545,162.3 274.545,162.115 C274.175,153.605 274.175,145.28 274.175,137.88 C274.175,125.67 274.36,115.865 274.545,111.055 C274.545,108.28 276.58,108.095 278.06,108.095 C285.275,107.91 299.52,107.725 313.21,107.725 C324.31,107.725 335.225,107.91 341.7,108.095 C344.475,108.28 345.215,108.65 345.215,111.61 C345.4,116.605 345.585,126.225 345.585,137.88 C345.585,145.465 345.4,153.79 345.215,162.115 C345.215,162.3 345.215,162.3 345.215,162.485 C345.215,168.405 350.58,171.18 355.945,171.365 C361.31,171.365 366.675,168.22 366.675,162.3 L366.675,162.115 M471.374,49.6348 C478.404,49.6348 482.289,44.6398 482.289,39.6448 C482.289,34.8348 478.959,30.2098 471.929,29.8398 C469.154,29.6548 458.979,29.4698 448.434,29.4698 C438.074,29.4698 427.529,29.6548 424.199,29.8398 C409.214,30.5798 399.594,38.3498 399.224,53.1497 C398.854,64.8047 398.669,89.9648 398.669,112.535 C398.669,127.52 398.669,141.21 399.039,148.98 C399.779,165.26 410.324,171.365 427.344,172.66 C429.749,172.845 440.479,173.03 451.024,173.03 C461.754,173.03 472.484,172.845 474.889,172.66 C482.844,172.29 486.544,167.295 486.544,162.3 C486.544,157.49 483.029,152.865 476.554,152.865 C476.184,152.865 475.999,152.865 475.629,152.865 C472.114,153.05 460.274,153.235 449.359,153.235 C423.274,153.235 420.314,152.865 419.389,144.355 C419.019,141.21 418.834,136.955 418.834,109.39 C418.834,105.505 420.684,105.32 443.624,105.32 C450.654,105.32 457.684,105.505 462.309,105.875 C462.679,105.875 463.049,105.875 463.234,105.875 C469.709,105.875 473.039,100.695 473.039,95.3298 C473.039,94.7747 473.039,84.9698 462.679,85.5247 C459.349,85.7098 450.469,85.7098 441.959,85.7098 C419.204,85.7098 419.019,85.7098 419.019,82.0098 C419.204,71.2798 419.019,62.2148 419.389,57.7747 C419.944,49.8197 423.829,49.4498 442.329,49.4498 C454.909,49.4498 471.374,49.6348 471.374,49.6348 M158.935,420.56 C158.935,414.27 152.83,408.72 146.54,408.72 C143.21,408.72 140.065,410.015 137.475,413.53 C129.89,423.705 116.015,429.07 101.955,429.07 C62.9195,429.07 53.8545,394.29 53.8545,378.75 C53.8545,353.775 70.5045,327.135 101.77,327.135 C113.425,327.135 125.08,331.39 132.295,340.27 C135.07,343.785 138.4,345.265 141.73,345.265 C147.65,345.265 153.015,340.085 153.015,333.795 C153.015,323.805 133.035,306.785 103.62,306.785 C58.4795,306.785 32.0245,342.49 32.0245,380.045 C32.0245,416.12 56.8145,450.345 102.88,450.345 C136.92,450.345 158.935,430.18 158.935,420.56 M246.055,450.53 C286.755,450.53 317.465,421.855 317.465,378.75 C317.465,337.125 286.755,306.97 246.055,306.97 C205.355,306.97 174.83,337.125 174.83,378.75 C174.83,421.855 205.355,450.53 246.055,450.53 M246.055,431.105 C218.674,431.105 196.475,410.57 196.475,378.75 C196.475,346.745 218.674,326.025 246.055,326.025 C273.435,326.025 295.635,346.745 295.635,378.75 C295.635,410.57 273.435,431.105 246.055,431.105 M467.311,378.38 C467.311,339.9 443.816,310.115 401.081,307.34 C398.306,307.155 392.756,306.97 387.021,306.97 C364.081,306.97 345.766,307.71 344.286,333.055 C343.731,343.045 343.176,364.505 343.176,384.855 C343.176,400.395 343.546,415.38 344.101,424.445 C345.951,450.345 372.221,450.53 387.021,450.53 C406.261,450.53 467.311,450.345 467.311,378.38 M399.231,327.135 C427.536,327.135 445.481,348.595 445.481,378.38 C445.481,430.735 406.446,430.735 387.021,430.735 C371.666,430.735 365.931,429.255 365.006,420.745 C364.266,413.715 363.896,400.025 363.896,385.41 C363.896,365.43 364.451,344.155 365.006,336.385 C365.561,327.135 375.551,326.95 384.431,326.95 C391.276,326.95 399.231,327.135 399.231,327.135 M566.28,327.135 C573.31,327.135 577.195,322.14 577.195,317.145 C577.195,312.335 573.865,307.71 566.835,307.34 C564.06,307.155 553.885,306.97 543.34,306.97 C532.98,306.97 522.435,307.155 519.105,307.34 C504.12,308.08 494.5,315.85 494.13,330.65 C493.76,342.305 493.575,367.465 493.575,390.035 C493.575,405.02 493.575,418.71 493.945,426.48 C494.685,442.76 505.23,448.865 522.25,450.16 C524.655,450.345 535.385,450.53 545.93,450.53 C556.66,450.53 567.39,450.345 569.795,450.16 C577.75,449.79 581.45,444.795 581.45,439.8 C581.45,434.99 577.935,430.365 571.46,430.365 C571.09,430.365 570.905,430.365 570.535,430.365 C567.02,430.55 555.18,430.735 544.265,430.735 C518.18,430.735 515.22,430.365 514.295,421.855 C513.925,418.71 513.74,414.455 513.74,386.89 C513.74,383.005 515.59,382.82 538.53,382.82 C545.56,382.82 552.59,383.005 557.215,383.375 C557.585,383.375 557.955,383.375 558.14,383.375 C564.615,383.375 567.945,378.195 567.945,372.83 C567.945,372.275 567.945,362.47 557.585,363.025 C554.255,363.21 545.375,363.21 536.865,363.21 C514.11,363.21 513.925,363.21 513.925,359.51 C514.11,348.78 513.925,339.715 514.295,335.275 C514.85,327.32 518.735,326.95 537.235,326.95 C549.815,326.95 566.28,327.135 566.28,327.135 Z" style="stroke:#eff3ff;stroke-opacity:1;stroke-width:5.5;stroke-linejoin:miter;stroke-miterlimit:2;stroke-linecap:round;fill:none;" class="KSejXhNq_1"></path>
        </g>
        <g id="Shape3">
            <desc shapeid="3" type="2" basicinfo-basictype="0" basicinfo-roundedrectradius="12" basicinfo-polygonsides="6" basicinfo-starpoints="5" bounding="rect(-167.525,-72.0926,335.049,144.185)" text="{  }" font-familyname="Nanum Myeongjo" font-pixelsize="83" font-bold="1" font-underline="0" font-alignment="1" strokestyle="0" markerstart="0" markerend="0" shadowenabled="0" shadowoffsetx="0" shadowoffsety="2" shadowblur="4" shadowopacity="160" blurenabled="0" blurradius="4" transform="matrix(1,0,0,1,142.236,234.067)" pers-center="0,0" pers-size="0,0" pers-start="0,0" pers-end="0,0" locked="0" mesh="" flag=""></desc>
            <path id="shapePath3" d="M109.014,221.643 C109.014,224.669 108.514,226.912 107.515,228.371 C106.515,229.83 105.151,230.937 103.422,231.694 C104.34,232.18 105.151,232.707 105.853,233.275 C106.556,233.842 107.137,234.517 107.596,235.301 C108.055,236.084 108.406,237.03 108.65,238.138 C108.893,239.246 109.014,240.583 109.014,242.15 L109.014,259.658 C109.014,261.063 109.122,262.252 109.339,263.224 C109.555,264.197 109.96,264.994 110.554,265.615 C111.149,266.237 111.959,266.723 112.986,267.074 C114.013,267.426 115.31,267.655 116.877,267.763 L116.877,270.033 C114.121,270.033 111.824,269.817 109.987,269.384 C108.15,268.952 106.664,268.25 105.529,267.277 C104.394,266.304 103.584,265.034 103.097,263.467 C102.611,261.9 102.368,259.955 102.368,257.631 L102.368,241.339 C102.368,238.962 101.827,237.017 100.747,235.504 C99.666,233.991 97.9098,232.937 95.4782,232.342 L95.4782,230.883 C100.017,229.911 102.287,227.047 102.287,222.292 L102.287,204.46 C102.287,200.569 103.489,197.773 105.894,196.07 C108.298,194.368 111.986,193.517 116.958,193.517 L117.039,196.03 C115.472,196.03 114.175,196.165 113.148,196.435 C112.121,196.705 111.297,197.151 110.676,197.773 C110.055,198.394 109.622,199.191 109.379,200.164 C109.136,201.136 109.014,202.325 109.014,203.73 L109.014,221.643 M175.541,242.15 C175.541,240.583 175.662,239.246 175.905,238.138 C176.149,237.03 176.513,236.084 177,235.301 C177.486,234.517 178.08,233.842 178.783,233.275 C179.485,232.707 180.296,232.18 181.215,231.694 C179.593,230.937 178.243,229.83 177.162,228.371 C176.081,226.912 175.541,224.669 175.541,221.643 L175.541,203.73 C175.541,202.325 175.419,201.136 175.176,200.164 C174.933,199.191 174.514,198.394 173.92,197.773 C173.325,197.151 172.515,196.705 171.488,196.435 C170.461,196.165 169.164,196.03 167.597,196.03 L167.597,193.517 C172.623,193.517 176.324,194.368 178.702,196.07 C181.079,197.773 182.268,200.569 182.268,204.46 L182.268,222.292 C182.268,227.047 184.538,229.911 189.077,230.883 L189.077,232.342 C184.484,233.531 182.187,236.53 182.187,241.339 L182.187,257.631 C182.187,259.955 181.958,261.9 181.498,263.467 C181.039,265.034 180.242,266.304 179.107,267.277 C177.972,268.25 176.486,268.952 174.649,269.384 C172.812,269.817 170.515,270.033 167.759,270.033 L167.759,267.763 C169.326,267.655 170.623,267.426 171.65,267.074 C172.677,266.723 173.474,266.237 174.041,265.615 C174.609,264.994 175,264.197 175.216,263.224 C175.433,262.252 175.541,261.063 175.541,259.658 L175.541,242.15 Z" style="stroke:#ffffff;stroke-opacity:1;stroke-width:1.5;stroke-linejoin:miter;stroke-miterlimit:2;stroke-linecap:round;fill:none;" class="KSejXhNq_2"></path>
        </g>
    </g>
<style>.KSejXhNq_0{stroke-dasharray:2248 2250;stroke-dashoffset:2249;animation:KSejXhNq_draw_0 6031ms ease-in 0ms infinite,KSejXhNq_fade 6031ms linear 0ms infinite;}.KSejXhNq_1{stroke-dasharray:4659 4661;stroke-dashoffset:4660;animation:KSejXhNq_draw_1 6031ms ease-in 0ms infinite,KSejXhNq_fade 6031ms linear 0ms infinite;}.KSejXhNq_2{stroke-dasharray:390 392;stroke-dashoffset:391;animation:KSejXhNq_draw_2 6031ms ease-in 0ms infinite,KSejXhNq_fade 6031ms linear 0ms infinite;}@keyframes KSejXhNq_draw{100%{stroke-dashoffset:0;}}@keyframes KSejXhNq_fade{0%{stroke-opacity:1;}99.9834190018239%{stroke-opacity:1;}100%{stroke-opacity:0;}}@keyframes KSejXhNq_draw_0{16.5809981760902%{stroke-dashoffset: 2249}42.122549476108595%{ stroke-dashoffset: 0;}100%{ stroke-dashoffset: 0;}}@keyframes KSejXhNq_draw_1{42.122549476108595%{stroke-dashoffset: 4660}95.04546146280745%{ stroke-dashoffset: 0;}100%{ stroke-dashoffset: 0;}}@keyframes KSejXhNq_draw_2{95.04546146280745%{stroke-dashoffset: 391}99.4859890565412%{ stroke-dashoffset: 0;}100%{ stroke-dashoffset: 0;}}</style></svg>
