<!--?xml version="1.0"?-->
<svg version="1.1" xmlns="http://www.w3.org/2000/svg" xmlns:xlink="http://www.w3.org/1999/xlink" width="640" height="480">
    <desc ivinci="yes" version="4.6" gridstep="20" showgrid="no" snaptogrid="no" codeplatform="0"></desc>
    <g id="Layer1" name="Layer 1" opacity="1">
        <g id="Shape1">
            <desc shapeid="1" type="0" basicinfo-basictype="2" basicinfo-roundedrectradius="5" basicinfo-polygonsides="6" basicinfo-starpoints="5" bounding="rect(-166.5,-100,333,200)" text="" font-familyname="Helvetica" font-pixelsize="20" font-bold="0" font-underline="0" font-alignment="1" strokestyle="0" markerstart="0" markerend="0" shadowenabled="0" shadowoffsetx="0" shadowoffsety="2" shadowblur="4" shadowopacity="160" blurenabled="0" blurradius="4" transform="matrix(1,0,0,1,393,234.5)" pers-center="0,0" pers-size="0,0" pers-start="0,0" pers-end="0,0" locked="0" mesh="" flag=""></desc>
            <path id="shapePath1" d="M226.5,139.5 C226.5,136.739 228.739,134.5 231.5,134.5 L554.5,134.5 C557.261,134.5 559.5,136.739 559.5,139.5 L559.5,329.5 C559.5,332.261 557.261,334.5 554.5,334.5 L231.5,334.5 C228.739,334.5 226.5,332.261 226.5,329.5 L226.5,139.5 Z" style="stroke:#323232;stroke-opacity:1;stroke-width:12.5;stroke-linejoin:miter;stroke-miterlimit:2;stroke-linecap:round;fill-rule:evenodd;fill:#ff001b;fill-opacity:1;" class="wKePFhDB_0"></path>
        </g>
        <g id="Shape2">
            <desc shapeid="2" type="2" basicinfo-basictype="0" basicinfo-roundedrectradius="12" basicinfo-polygonsides="6" basicinfo-starpoints="5" bounding="rect(-107.5,-63,215,126)" text="You" font-familyname="HeadLineA" font-pixelsize="111" font-bold="1" font-underline="0" font-alignment="1" strokestyle="0" markerstart="0" markerend="0" shadowenabled="0" shadowoffsetx="0" shadowoffsety="2" shadowblur="4" shadowopacity="160" blurenabled="0" blurradius="4" transform="matrix(1,0,0,1,138,238.969)" pers-center="0,0" pers-size="0,0" pers-start="0,0" pers-end="0,0" locked="0" mesh="" flag=""></desc>
            <path id="shapePath2" d="M116.828,197.157 L102.736,244.744 L102.736,271.735 L84.6338,271.735 L84.6338,244.744 L71.084,197.157 L88.9697,197.157 C90.7041,206.624 91.6436,211.899 91.7881,212.983 C92.583,218.186 93.1973,222.703 93.6309,226.533 C94.5703,219.957 95.582,213.85 96.666,208.213 C97.3887,204.528 98.1475,200.842 98.9424,197.157 L116.828,197.157 M159.753,247.02 C159.753,247.959 159.753,248.646 159.753,249.08 C159.753,250.742 159.753,252.404 159.753,254.066 C159.608,256.812 159.175,259.197 158.452,261.22 C157.224,264.906 155.092,267.598 152.057,269.296 C149.021,270.994 145.119,271.843 140.35,271.843 C139.482,271.843 138.868,271.843 138.507,271.843 C135.761,271.843 133.593,271.699 132.003,271.41 C130.413,271.121 128.859,270.398 127.342,269.242 C124.812,267.363 123.168,264.888 122.41,261.816 C121.651,258.745 121.271,254.5 121.271,249.08 L121.271,233.47 C121.271,232.169 121.271,230.905 121.271,229.676 C121.271,228.448 121.38,227.147 121.597,225.774 C122.319,220.571 124.216,216.687 127.288,214.121 C130.359,211.556 134.568,210.273 139.916,210.273 C149.672,210.273 155.887,213.814 158.561,220.896 C159.066,222.125 159.392,223.75 159.536,225.774 C159.681,227.797 159.753,229.893 159.753,232.061 L159.753,247.02 M142.951,258.727 L142.951,227.4 C142.951,226.75 142.951,226.28 142.951,225.991 C142.951,223.534 142.771,221.98 142.409,221.33 C142.048,220.679 141.397,220.354 140.458,220.354 C139.229,220.354 138.507,220.986 138.29,222.251 C138.073,223.516 137.965,224.762 137.965,225.991 C137.965,226.641 137.965,227.111 137.965,227.4 L137.965,256.776 C137.965,258.438 138.127,259.721 138.453,260.624 C138.778,261.527 139.446,261.979 140.458,261.979 C142.12,261.979 142.951,260.895 142.951,258.727 M203.643,271.735 L186.516,271.735 L186.841,266.64 C185.612,268.519 184.257,269.856 182.776,270.651 C181.294,271.446 179.361,271.843 176.977,271.843 C176.398,271.843 175.965,271.843 175.676,271.843 C173.941,271.843 172.496,271.717 171.34,271.464 C170.184,271.211 169.136,270.579 168.196,269.567 C166.751,267.977 165.848,266.152 165.486,264.093 C165.125,262.033 164.944,258.98 164.944,254.933 C164.944,253.632 164.944,252.621 164.944,251.898 L164.944,210.598 L181.854,210.598 L181.854,257.86 C181.854,259.233 182.017,260.263 182.342,260.949 C182.667,261.636 183.264,261.979 184.131,261.979 C185.432,261.979 186.263,261.292 186.624,259.919 C186.769,259.341 186.841,258.33 186.841,256.884 L186.841,210.598 L203.643,210.598 L203.643,271.735 Z" style="stroke:#0030ff;stroke-opacity:1;stroke-width:1.5;stroke-linejoin:miter;stroke-miterlimit:2;stroke-linecap:round;fill-rule:nonzero;fill:#000000;fill-opacity:1;" class="wKePFhDB_1"></path>
        </g>
        <g id="Shape3">
            <desc shapeid="3" type="2" basicinfo-basictype="0" basicinfo-roundedrectradius="12" basicinfo-polygonsides="6" basicinfo-starpoints="5" bounding="rect(-135.5,-47,271,94)" text="Tube" font-familyname="HeadLineA" font-pixelsize="150" font-bold="1" font-underline="0" font-alignment="1" strokestyle="0" markerstart="0" markerend="0" shadowenabled="0" shadowoffsetx="0" shadowoffsety="2" shadowblur="4" shadowopacity="160" blurenabled="0" blurradius="4" transform="matrix(1,0,0,1,391.83,243.53)" pers-center="0,0" pers-size="0,0" pers-start="0,0" pers-end="0,0" locked="0" mesh="" flag=""></desc>
            <path id="shapePath3" d="M331.57,206.786 L316.189,206.786 L316.189,287.499 L289.969,287.499 L289.969,206.786 L274.295,206.786 L274.295,186.717 L331.57,186.717 L331.57,206.786 M388.834,287.499 L365.689,287.499 L366.129,280.614 C364.469,283.153 362.638,284.959 360.636,286.034 C358.634,287.108 356.021,287.645 352.799,287.645 C352.018,287.645 351.432,287.645 351.041,287.645 C348.697,287.645 346.744,287.474 345.182,287.132 C343.619,286.791 342.203,285.936 340.934,284.569 C338.98,282.42 337.76,279.955 337.271,277.171 C336.783,274.388 336.539,270.262 336.539,264.793 C336.539,263.036 336.539,261.668 336.539,260.692 L336.539,204.881 L359.391,204.881 L359.391,268.749 C359.391,270.604 359.61,271.996 360.05,272.923 C360.489,273.851 361.295,274.315 362.467,274.315 C364.225,274.315 365.348,273.387 365.836,271.532 C366.031,270.75 366.129,269.383 366.129,267.43 L366.129,204.881 L388.834,204.881 L388.834,287.499 M449.178,264.354 C449.178,269.432 449.129,272.508 449.031,273.583 C448.543,278.27 446.98,281.932 444.344,284.569 C443.074,285.741 441.536,286.546 439.729,286.986 C437.923,287.425 435.896,287.645 433.65,287.645 C430.135,287.645 427.352,287.206 425.301,286.327 C423.25,285.448 421.297,283.739 419.441,281.2 L418.123,287.499 L396.883,287.499 L396.883,186.717 L419.441,186.717 L419.441,210.594 C421.395,208.25 423.323,206.786 425.228,206.2 C427.132,205.614 430.037,205.321 433.943,205.321 C438.143,205.321 441.414,205.956 443.758,207.225 C446.102,208.495 447.664,210.79 448.445,214.11 C448.738,215.086 448.934,216.454 449.031,218.211 C449.129,219.969 449.178,221.629 449.178,223.192 L449.178,264.354 M426.619,263.182 L426.619,228.465 C426.619,224.461 426.424,221.727 426.033,220.262 C425.643,218.797 424.568,218.065 422.811,218.065 C420.955,218.065 419.93,219.017 419.734,220.921 C419.539,222.826 419.441,225.34 419.441,228.465 L419.441,263.915 C419.441,267.821 419.637,270.531 420.027,272.044 C420.418,273.558 421.395,274.315 422.957,274.315 C424.227,274.315 425.154,273.705 425.74,272.484 C426.326,271.263 426.619,268.163 426.619,263.182 M507.326,258.934 C507.326,260.106 507.326,260.985 507.326,261.571 C507.326,265.477 507.082,268.578 506.594,270.873 C506.105,273.167 504.885,275.78 502.932,278.709 C500.686,282.225 498.122,284.593 495.241,285.814 C492.36,287.035 488.381,287.645 483.303,287.645 C476.662,287.645 471.242,286.498 467.043,284.203 C462.844,281.908 459.914,278.221 458.254,273.143 C457.473,270.897 457.033,268.114 456.936,264.793 C456.838,261.473 456.789,259.032 456.789,257.469 L456.789,233.446 C456.789,230.028 456.911,227.098 457.155,224.657 C457.399,222.215 457.961,219.823 458.84,217.479 C460.5,213.084 463.259,209.886 467.116,207.884 C470.974,205.882 475.832,204.881 481.691,204.881 C486.77,204.881 491.018,205.589 494.436,207.005 C497.854,208.421 500.637,210.741 502.785,213.963 C504.543,216.6 505.739,219.823 506.374,223.631 C507.009,227.44 507.326,231.834 507.326,236.815 L507.326,247.801 L479.348,247.801 L479.348,265.526 C479.348,268.065 479.445,270.165 479.641,271.825 C479.836,273.485 480.91,274.315 482.863,274.315 C484.523,274.315 485.671,273.583 486.306,272.118 C486.94,270.653 487.258,268.553 487.258,265.819 L487.258,255.858 L507.326,255.858 L507.326,258.934 M485.939,234.178 L485.939,228.319 C485.939,227.147 485.939,226.317 485.939,225.829 C485.939,222.899 485.744,220.897 485.354,219.823 C484.963,218.749 484.133,218.211 482.863,218.211 C481.398,218.211 480.446,218.651 480.007,219.53 C479.567,220.409 479.348,221.971 479.348,224.217 L479.348,234.178 L485.939,234.178 Z" style="stroke:#ffffff;stroke-opacity:1;stroke-width:2.5;stroke-linejoin:miter;stroke-miterlimit:2;stroke-linecap:round;fill:none;" class="wKePFhDB_2"></path>
        </g>
        <g id="Shape4">
            <desc shapeid="4" type="0" basicinfo-basictype="0" basicinfo-roundedrectradius="12" basicinfo-polygonsides="6" basicinfo-starpoints="5" bounding="rect(-42.0023,-25.5001,84.0046,51.0001)" text="" font-familyname="Helvetica" font-pixelsize="20" font-bold="0" font-underline="0" font-alignment="1" strokestyle="0" markerstart="0" markerend="0" shadowenabled="0" shadowoffsetx="0" shadowoffsety="2" shadowblur="4" shadowopacity="160" blurenabled="0" blurradius="4" transform="matrix(2.83417,0,0,0.352943,390.811,352.835)" pers-center="0,0" pers-size="0,0" pers-start="0,0" pers-end="0,0" locked="0" mesh="" flag=""></desc>
            <path id="shapePath4" d="M390.811,343.835 L450.332,352.835 L509.852,361.835 L390.811,361.835 L271.769,361.835 L331.291,352.835 L390.811,343.835 Z" style="stroke:#929594;stroke-opacity:1;stroke-width:7;stroke-linejoin:miter;stroke-miterlimit:2;stroke-linecap:round;fill:none;" class="wKePFhDB_3"></path>
        </g>
    </g>
<style>.wKePFhDB_0{stroke-dasharray:1058 1060;stroke-dashoffset:1059;animation:wKePFhDB_draw_0 4200ms linear 0ms infinite,wKePFhDB_fade 4200ms linear 0ms infinite;}.wKePFhDB_1{stroke-dasharray:831 833;stroke-dashoffset:832;animation:wKePFhDB_draw_1 4200ms linear 0ms infinite,wKePFhDB_fade 4200ms linear 0ms infinite;}.wKePFhDB_2{stroke-dasharray:1516 1518;stroke-dashoffset:1517;animation:wKePFhDB_draw_2 4200ms linear 0ms infinite,wKePFhDB_fade 4200ms linear 0ms infinite;}.wKePFhDB_3{stroke-dasharray:479 481;stroke-dashoffset:480;animation:wKePFhDB_draw_3 4200ms linear 0ms infinite,wKePFhDB_fade 4200ms linear 0ms infinite;}@keyframes wKePFhDB_draw{100%{stroke-dashoffset:0;}}@keyframes wKePFhDB_fade{0%{stroke-opacity:1;}97.61904761904762%{stroke-opacity:1;}100%{stroke-opacity:0;}}@keyframes wKePFhDB_draw_0{2.380952380952381%{stroke-dashoffset: 1059}50%{ stroke-dashoffset: 0;}100%{ stroke-dashoffset: 0;}}@keyframes wKePFhDB_draw_1{10.317460317460316%{stroke-dashoffset: 832}57.936507936507944%{ stroke-dashoffset: 0;}100%{ stroke-dashoffset: 0;}}@keyframes wKePFhDB_draw_2{18.253968253968253%{stroke-dashoffset: 1517}65.87301587301587%{ stroke-dashoffset: 0;}100%{ stroke-dashoffset: 0;}}@keyframes wKePFhDB_draw_3{26.190476190476193%{stroke-dashoffset: 480}73.80952380952381%{ stroke-dashoffset: 0;}100%{ stroke-dashoffset: 0;}}</style></svg>
